<svg width="77" height="51" viewBox="0 0 77 51" fill="none" xmlns="http://www.w3.org/2000/svg">
<path d="M18.4 50.2271C12.7333 50.2271 8.404 48.0965 5.412 43.8351C2.42 39.5285 0.924 33.4085 0.924 25.4751C0.924 17.4511 2.42 11.3538 5.412 7.18312C8.404 3.01245 12.7333 0.927117 18.4 0.927117C24.112 0.927117 28.4413 3.01245 31.388 7.18312C34.38 11.3538 35.876 17.4285 35.876 25.4071C35.876 33.3858 34.38 39.5285 31.388 43.8351C28.396 48.0965 24.0667 50.2271 18.4 50.2271ZM18.4 43.0871C21.4827 43.0871 23.7493 41.6591 25.2 38.8031C26.696 35.9471 27.444 31.4818 27.444 25.4071C27.444 19.3325 26.696 14.9351 25.2 12.2151C23.7493 9.44978 21.4827 8.06712 18.4 8.06712C15.3627 8.06712 13.096 9.44978 11.6 12.2151C10.104 14.9351 9.356 19.3325 9.356 25.4071C9.356 31.4818 10.104 35.9471 11.6 38.8031C13.096 41.6591 15.3627 43.0871 18.4 43.0871ZM49.3814 49.5471C46.8881 49.5471 45.6414 48.3231 45.6414 45.8751C45.6414 43.5178 46.8881 42.3391 49.3814 42.3391H56.9974V11.5351L51.2174 15.0031C50.1294 15.6378 49.1321 15.7965 48.2254 15.4791C47.3641 15.1618 46.7068 14.5951 46.2534 13.7791C45.8001 12.9631 45.6641 12.0791 45.8454 11.1271C46.0268 10.1298 46.6614 9.31378 47.7494 8.67912L57.1334 3.03512C58.0401 2.49112 58.9468 2.03778 59.8534 1.67512C60.7601 1.26712 61.5988 1.06312 62.3694 1.06312C63.3214 1.06312 64.1148 1.33512 64.7494 1.87912C65.3841 2.37778 65.7014 3.21645 65.7014 4.39512V42.3391H72.6374C75.1308 42.3391 76.3774 43.5178 76.3774 45.8751C76.3774 48.3231 75.1308 49.5471 72.6374 49.5471H49.3814Z" fill="white"/>
</svg>
