<svg width="77" height="50" viewBox="0 0 77 50" fill="none" xmlns="http://www.w3.org/2000/svg">
<path d="M18.4 49.6929C12.7333 49.6929 8.404 47.5623 5.412 43.3009C2.42 38.9943 0.924 32.8743 0.924 24.9409C0.924 16.9169 2.42 10.8196 5.412 6.64894C8.404 2.47827 12.7333 0.392937 18.4 0.392937C24.112 0.392937 28.4413 2.47827 31.388 6.64894C34.38 10.8196 35.876 16.8943 35.876 24.8729C35.876 32.8516 34.38 38.9943 31.388 43.3009C28.396 47.5623 24.0667 49.6929 18.4 49.6929ZM18.4 42.5529C21.4827 42.5529 23.7493 41.1249 25.2 38.2689C26.696 35.4129 27.444 30.9476 27.444 24.8729C27.444 18.7983 26.696 14.4009 25.2 11.6809C23.7493 8.9156 21.4827 7.53294 18.4 7.53294C15.3627 7.53294 13.096 8.9156 11.6 11.6809C10.104 14.4009 9.356 18.7983 9.356 24.8729C9.356 30.9476 10.104 35.4129 11.6 38.2689C13.096 41.1249 15.3627 42.5529 18.4 42.5529ZM47.8174 49.0129C46.3668 49.0129 45.3014 48.6956 44.6214 48.0609C43.9868 47.3809 43.6694 46.4063 43.6694 45.1369C43.6694 44.3663 43.8734 43.6183 44.2814 42.8929C44.6894 42.1676 45.2788 41.3969 46.0494 40.5809L59.7174 26.0289C61.8028 23.8529 63.2988 21.8809 64.2054 20.1129C65.1121 18.2996 65.5654 16.4863 65.5654 14.6729C65.5654 10.0489 62.7774 7.73694 57.2014 7.73694C55.6601 7.73694 54.1188 7.9636 52.5774 8.41694C51.0361 8.82494 49.4721 9.55027 47.8854 10.5929C46.8881 11.2729 45.9588 11.4769 45.0974 11.2049C44.2361 10.9329 43.5788 10.3889 43.1254 9.57294C42.6721 8.7116 42.5134 7.80494 42.6494 6.85294C42.8308 5.90094 43.4201 5.08494 44.4174 4.40494C46.3668 3.09027 48.5428 2.09294 50.9454 1.41294C53.3934 0.732937 55.8414 0.392937 58.2894 0.392937C63.4121 0.392937 67.3334 1.54894 70.0534 3.86094C72.8188 6.17294 74.2014 9.48227 74.2014 13.7889C74.2014 16.6903 73.4988 19.4783 72.0934 22.1529C70.7334 24.8276 68.5801 27.7063 65.6334 30.7889L55.0934 41.8049H72.8414C75.3348 41.8049 76.5814 42.9836 76.5814 45.3409C76.5814 47.7889 75.3348 49.0129 72.8414 49.0129H47.8174Z" fill="white"/>
</svg>
