<svg width="76" height="51" viewBox="0 0 76 51" fill="none" xmlns="http://www.w3.org/2000/svg">
<path d="M18.4 50.2271C12.7333 50.2271 8.404 48.0965 5.412 43.8351C2.42 39.5285 0.924 33.4085 0.924 25.4751C0.924 17.4511 2.42 11.3538 5.412 7.18312C8.404 3.01245 12.7333 0.927117 18.4 0.927117C24.112 0.927117 28.4413 3.01245 31.388 7.18312C34.38 11.3538 35.876 17.4285 35.876 25.4071C35.876 33.3858 34.38 39.5285 31.388 43.8351C28.396 48.0965 24.0667 50.2271 18.4 50.2271ZM18.4 43.0871C21.4827 43.0871 23.7493 41.6591 25.2 38.8031C26.696 35.9471 27.444 31.4818 27.444 25.4071C27.444 19.3325 26.696 14.9351 25.2 12.2151C23.7493 9.44978 21.4827 8.06712 18.4 8.06712C15.3627 8.06712 13.096 9.44978 11.6 12.2151C10.104 14.9351 9.356 19.3325 9.356 25.4071C9.356 31.4818 10.104 35.9471 11.6 38.8031C13.096 41.6591 15.3627 43.0871 18.4 43.0871ZM58.2214 50.2271C55.7734 50.2271 53.2348 49.9098 50.6054 49.2751C47.9761 48.6405 45.6868 47.6885 43.7374 46.4191C42.6041 45.6485 41.9241 44.7871 41.6974 43.8351C41.4708 42.8378 41.5841 41.9538 42.0374 41.1831C42.4908 40.3671 43.1708 39.8231 44.0774 39.5511C45.0294 39.2791 46.0948 39.4605 47.2734 40.0951C49.1321 41.0925 50.9228 41.8178 52.6454 42.2711C54.3681 42.6791 56.1361 42.8831 57.9494 42.8831C64.0694 42.8831 67.1294 40.4805 67.1294 35.6751C67.1294 33.4085 66.3588 31.7311 64.8174 30.6431C63.3214 29.5098 61.1228 28.9431 58.2214 28.9431H53.8694C52.6001 28.9431 51.6254 28.6258 50.9454 27.9911C50.3108 27.3565 49.9934 26.4725 49.9934 25.3391C49.9934 24.2058 50.3108 23.3218 50.9454 22.6871C51.6254 22.0525 52.6001 21.7351 53.8694 21.7351H57.4054C59.9441 21.7351 61.9614 21.1231 63.4574 19.8991C64.9534 18.6298 65.7014 16.8845 65.7014 14.6631C65.7014 12.5778 64.9988 10.9911 63.5934 9.90312C62.2334 8.81512 60.2388 8.27112 57.6094 8.27112C55.9321 8.27112 54.3454 8.47512 52.8494 8.88312C51.3988 9.24578 49.7894 9.94845 48.0214 10.9911C46.9788 11.6258 46.0268 11.8071 45.1654 11.5351C44.3041 11.2178 43.6241 10.6738 43.1254 9.90312C42.6721 9.08712 42.5361 8.20312 42.7174 7.25112C42.8988 6.29912 43.5334 5.48312 44.6214 4.80312C48.6108 2.21912 53.1894 0.927117 58.3574 0.927117C63.3441 0.927117 67.2201 2.06045 69.9854 4.32712C72.7508 6.54845 74.1334 9.65378 74.1334 13.6431C74.1334 16.2271 73.4761 18.4938 72.1614 20.4431C70.8468 22.3925 69.0561 23.7978 66.7894 24.6591C69.5548 25.4298 71.7081 26.8578 73.2494 28.9431C74.7908 30.9831 75.5614 33.4765 75.5614 36.4231C75.5614 40.6845 74.0201 44.0618 70.9374 46.5551C67.8548 49.0031 63.6161 50.2271 58.2214 50.2271Z" fill="white"/>
</svg>
