<svg width="79" height="50" viewBox="0 0 79 50" fill="none" xmlns="http://www.w3.org/2000/svg">
<path d="M18.4 49.8331C12.7333 49.8331 8.404 47.7025 5.412 43.4411C2.42 39.1345 0.924 33.0145 0.924 25.0811C0.924 17.0571 2.42 10.9598 5.412 6.78914C8.404 2.61847 12.7333 0.533135 18.4 0.533135C24.112 0.533135 28.4413 2.61847 31.388 6.78914C34.38 10.9598 35.876 17.0345 35.876 25.0131C35.876 32.9918 34.38 39.1345 31.388 43.4411C28.396 47.7025 24.0667 49.8331 18.4 49.8331ZM18.4 42.6931C21.4827 42.6931 23.7493 41.2651 25.2 38.4091C26.696 35.5531 27.444 31.0878 27.444 25.0131C27.444 18.9385 26.696 14.5411 25.2 11.8211C23.7493 9.0558 21.4827 7.67314 18.4 7.67314C15.3627 7.67314 13.096 9.0558 11.6 11.8211C10.104 14.5411 9.356 18.9385 9.356 25.0131C9.356 31.0878 10.104 35.5531 11.6 38.4091C13.096 41.2651 15.3627 42.6931 18.4 42.6931ZM66.8574 49.6971C65.4974 49.6971 64.4321 49.3345 63.6614 48.6091C62.8908 47.8385 62.5054 46.7505 62.5054 45.3451V40.0411H45.7094C44.3041 40.0411 43.1708 39.7465 42.3094 39.1571C41.4934 38.5678 41.0854 37.6611 41.0854 36.4371C41.0854 35.6665 41.2668 34.8505 41.6294 33.9891C42.0374 33.1278 42.7401 31.9945 43.7374 30.5891L62.3694 3.59314C63.0041 2.64113 63.7068 1.9158 64.4774 1.41714C65.2481 0.918467 66.1321 0.669133 67.1294 0.669133C68.3081 0.669133 69.2828 1.0318 70.0534 1.75714C70.8241 2.43713 71.2094 3.52513 71.2094 5.02113V32.8331H74.5414C77.1708 32.8331 78.4854 34.0345 78.4854 36.4371C78.4854 38.8398 77.1708 40.0411 74.5414 40.0411H71.2094V45.3451C71.2094 46.7505 70.8241 47.8385 70.0534 48.6091C69.2828 49.3345 68.2174 49.6971 66.8574 49.6971ZM62.5054 32.8331V14.5411L49.9934 32.8331H62.5054Z" fill="white"/>
</svg>
