<svg width="77" height="51" viewBox="0 0 77 51" fill="none" xmlns="http://www.w3.org/2000/svg">
<path d="M18.4 50.2271C12.7333 50.2271 8.404 48.0965 5.412 43.8351C2.42 39.5285 0.924 33.4085 0.924 25.4751C0.924 17.4511 2.42 11.3538 5.412 7.18312C8.404 3.01245 12.7333 0.927117 18.4 0.927117C24.112 0.927117 28.4413 3.01245 31.388 7.18312C34.38 11.3538 35.876 17.4285 35.876 25.4071C35.876 33.3858 34.38 39.5285 31.388 43.8351C28.396 48.0965 24.0667 50.2271 18.4 50.2271ZM18.4 43.0871C21.4827 43.0871 23.7493 41.6591 25.2 38.8031C26.696 35.9471 27.444 31.4818 27.444 25.4071C27.444 19.3325 26.696 14.9351 25.2 12.2151C23.7493 9.44978 21.4827 8.06712 18.4 8.06712C15.3627 8.06712 13.096 9.44978 11.6 12.2151C10.104 14.9351 9.356 19.3325 9.356 25.4071C9.356 31.4818 10.104 35.9471 11.6 38.8031C13.096 41.6591 15.3627 43.0871 18.4 43.0871ZM59.5814 50.2271C57.1788 50.2271 54.7308 49.9098 52.2374 49.2751C49.7441 48.6405 47.4548 47.6658 45.3694 46.3511C44.2814 45.6711 43.6241 44.8551 43.3974 43.9031C43.2161 42.9058 43.3521 41.9991 43.8054 41.1831C44.2588 40.3218 44.9161 39.7551 45.7774 39.4831C46.6841 39.1658 47.7041 39.3245 48.8374 39.9591C50.5148 40.9111 52.2148 41.6365 53.9374 42.1351C55.6601 42.6338 57.4961 42.8831 59.4454 42.8831C62.3014 42.8831 64.5228 42.1578 66.1094 40.7071C67.7414 39.2111 68.5574 37.2165 68.5574 34.7231C68.5574 32.1845 67.7868 30.1445 66.2454 28.6031C64.7041 27.0165 62.5961 26.2231 59.9214 26.2231C58.4708 26.2231 57.0654 26.4725 55.7054 26.9711C54.3454 27.4245 53.0081 28.2405 51.6934 29.4191C51.2854 29.7818 50.7641 30.1445 50.1294 30.5071C49.4948 30.8245 48.8148 30.9831 48.0894 30.9831C45.7774 30.9831 44.6214 29.8725 44.6214 27.6511V5.41512C44.6214 2.87645 45.8908 1.60712 48.4294 1.60712H70.8014C73.3401 1.60712 74.6094 2.80845 74.6094 5.21112C74.6094 7.61378 73.3401 8.81512 70.8014 8.81512H53.1214V21.8031C55.5241 19.9898 58.4708 19.0831 61.9614 19.0831C64.9988 19.0831 67.6281 19.7405 69.8494 21.0551C72.1161 22.3245 73.8614 24.1151 75.0854 26.4271C76.3548 28.6938 76.9894 31.3458 76.9894 34.3831C76.9894 37.5111 76.2868 40.2765 74.8814 42.6791C73.4761 45.0365 71.4588 46.8951 68.8294 48.2551C66.2454 49.5698 63.1628 50.2271 59.5814 50.2271Z" fill="white"/>
</svg>
