<svg width="77" height="50" viewBox="0 0 77 50" fill="none" xmlns="http://www.w3.org/2000/svg">
<path d="M18.4 49.7063C12.7333 49.7063 8.404 47.5756 5.412 43.3143C2.42 39.0076 0.924 32.8876 0.924 24.9543C0.924 16.9303 2.42 10.833 5.412 6.6623C8.404 2.49164 12.7333 0.406304 18.4 0.406304C24.112 0.406304 28.4413 2.49164 31.388 6.6623C34.38 10.833 35.876 16.9076 35.876 24.8863C35.876 32.865 34.38 39.0076 31.388 43.3143C28.396 47.5756 24.0667 49.7063 18.4 49.7063ZM18.4 42.5663C21.4827 42.5663 23.7493 41.1383 25.2 38.2823C26.696 35.4263 27.444 30.961 27.444 24.8863C27.444 18.8116 26.696 14.4143 25.2 11.6943C23.7493 8.92897 21.4827 7.54631 18.4 7.54631C15.3627 7.54631 13.096 8.92897 11.6 11.6943C10.104 14.4143 9.356 18.8116 9.356 24.8863C9.356 30.961 10.104 35.4263 11.6 38.2823C13.096 41.1383 15.3627 42.5663 18.4 42.5663ZM60.9414 49.7063C55.0028 49.7063 50.4014 47.621 47.1374 43.4503C43.9188 39.2796 42.3094 33.4316 42.3094 25.9063C42.3094 17.7916 44.1228 11.513 47.7494 7.0703C51.4214 2.62764 56.4761 0.406304 62.9134 0.406304C64.9081 0.406304 66.9254 0.723637 68.9654 1.3583C71.0508 1.94764 73.0001 2.8543 74.8134 4.07831C75.7201 4.66764 76.2414 5.43831 76.3774 6.3903C76.5134 7.29697 76.3774 8.18097 75.9694 9.04231C75.5614 9.8583 74.9268 10.425 74.0654 10.7423C73.2494 11.0143 72.2974 10.833 71.2094 10.1983C69.6681 9.29164 68.2174 8.65697 66.8574 8.2943C65.4974 7.93164 64.1374 7.7503 62.7774 7.7503C58.8334 7.7503 55.8188 9.13297 53.7334 11.8983C51.6481 14.6636 50.6054 18.789 50.6054 24.2743V26.2463C51.5574 23.753 53.0988 21.8036 55.2294 20.3983C57.3601 18.993 59.8081 18.2903 62.5734 18.2903C65.3388 18.2903 67.7868 18.9476 69.9174 20.2623C72.0481 21.577 73.7254 23.3903 74.9494 25.7023C76.1734 28.0143 76.7854 30.6663 76.7854 33.6583C76.7854 36.741 76.1054 39.5063 74.7454 41.9543C73.4308 44.357 71.5721 46.261 69.1694 47.6663C66.8121 49.0263 64.0694 49.7063 60.9414 49.7063ZM60.4654 42.7703C62.9134 42.7703 64.8854 41.977 66.3814 40.3903C67.9228 38.7583 68.6934 36.6276 68.6934 33.9983C68.6934 31.369 67.9228 29.2383 66.3814 27.6063C64.8854 25.9743 62.9134 25.1583 60.4654 25.1583C58.0174 25.1583 56.0228 25.9743 54.4814 27.6063C52.9854 29.2383 52.2374 31.369 52.2374 33.9983C52.2374 36.6276 52.9854 38.7583 54.4814 40.3903C56.0228 41.977 58.0174 42.7703 60.4654 42.7703Z" fill="white"/>
</svg>
