<svg width="77" height="51" viewBox="0 0 77 51" fill="none" xmlns="http://www.w3.org/2000/svg">
<path d="M18.4 50.2271C12.7333 50.2271 8.404 48.0965 5.412 43.8351C2.42 39.5285 0.924 33.4085 0.924 25.4751C0.924 17.4511 2.42 11.3538 5.412 7.18312C8.404 3.01245 12.7333 0.927117 18.4 0.927117C24.112 0.927117 28.4413 3.01245 31.388 7.18312C34.38 11.3538 35.876 17.4285 35.876 25.4071C35.876 33.3858 34.38 39.5285 31.388 43.8351C28.396 48.0965 24.0667 50.2271 18.4 50.2271ZM18.4 43.0871C21.4827 43.0871 23.7493 41.6591 25.2 38.8031C26.696 35.9471 27.444 31.4818 27.444 25.4071C27.444 19.3325 26.696 14.9351 25.2 12.2151C23.7493 9.44978 21.4827 8.06712 18.4 8.06712C15.3627 8.06712 13.096 9.44978 11.6 12.2151C10.104 14.9351 9.356 19.3325 9.356 25.4071C9.356 31.4818 10.104 35.9471 11.6 38.8031C13.096 41.6591 15.3627 43.0871 18.4 43.0871ZM50.4694 50.0911C48.8828 50.0911 47.7494 49.5471 47.0694 48.4591C46.3894 47.3711 46.4574 46.0565 47.2734 44.5151L66.2454 8.88312H45.7774C43.2388 8.88312 41.9694 7.68178 41.9694 5.27912C41.9694 2.83112 43.2388 1.60712 45.7774 1.60712H72.0934C73.3174 1.60712 74.3148 1.92445 75.0854 2.55912C75.8561 3.19378 76.2414 4.10045 76.2414 5.27912C76.2414 6.27645 76.1054 7.16045 75.8334 7.93112C75.5614 8.65645 75.1988 9.44978 74.7454 10.3111L55.4334 47.2351C54.4361 49.1391 52.7814 50.0911 50.4694 50.0911Z" fill="white"/>
</svg>
