<svg width="77" height="50" viewBox="0 0 77 50" fill="none" xmlns="http://www.w3.org/2000/svg">
<path d="M18.4 49.7063C12.7333 49.7063 8.404 47.5756 5.412 43.3143C2.42 39.0076 0.924 32.8876 0.924 24.9543C0.924 16.9303 2.42 10.833 5.412 6.6623C8.404 2.49164 12.7333 0.406304 18.4 0.406304C24.112 0.406304 28.4413 2.49164 31.388 6.6623C34.38 10.833 35.876 16.9076 35.876 24.8863C35.876 32.865 34.38 39.0076 31.388 43.3143C28.396 47.5756 24.0667 49.7063 18.4 49.7063ZM18.4 42.5663C21.4827 42.5663 23.7493 41.1383 25.2 38.2823C26.696 35.4263 27.444 30.961 27.444 24.8863C27.444 18.8116 26.696 14.4143 25.2 11.6943C23.7493 8.92897 21.4827 7.54631 18.4 7.54631C15.3627 7.54631 13.096 8.92897 11.6 11.6943C10.104 14.4143 9.356 18.8116 9.356 24.8863C9.356 30.961 10.104 35.4263 11.6 38.2823C13.096 41.1383 15.3627 42.5663 18.4 42.5663ZM59.1734 49.7063C53.5974 49.7063 49.2228 48.505 46.0494 46.1023C42.9214 43.6996 41.3574 40.3676 41.3574 36.1063C41.3574 33.205 42.1054 30.7343 43.6014 28.6943C45.1428 26.6543 47.1374 25.2263 49.5854 24.4103C47.4094 23.4583 45.6868 22.0076 44.4174 20.0583C43.1934 18.109 42.5814 15.865 42.5814 13.3263C42.5814 9.29164 44.0774 6.14097 47.0694 3.8743C50.0614 1.5623 54.0961 0.406304 59.1734 0.406304C64.2961 0.406304 68.3534 1.5623 71.3454 3.8743C74.3374 6.14097 75.8334 9.29164 75.8334 13.3263C75.8334 15.865 75.1988 18.1316 73.9294 20.1263C72.7054 22.0756 71.0281 23.5036 68.8974 24.4103C71.3454 25.2263 73.2948 26.677 74.7454 28.7623C76.2414 30.8023 76.9894 33.2503 76.9894 36.1063C76.9894 40.3676 75.4028 43.6996 72.2294 46.1023C69.1014 48.505 64.7494 49.7063 59.1734 49.7063ZM59.1734 21.3503C61.8481 21.3503 63.9334 20.7156 65.4294 19.4463C66.9708 18.177 67.7414 16.4316 67.7414 14.2103C67.7414 12.0343 66.9708 10.3343 65.4294 9.11031C63.9334 7.84097 61.8481 7.20631 59.1734 7.20631C56.4988 7.20631 54.4134 7.84097 52.9174 9.11031C51.4214 10.3343 50.6734 12.0343 50.6734 14.2103C50.6734 16.4316 51.4214 18.177 52.9174 19.4463C54.4134 20.7156 56.4988 21.3503 59.1734 21.3503ZM59.1734 42.9063C65.6561 42.9063 68.8974 40.4356 68.8974 35.4943C68.8974 30.5983 65.6561 28.1503 59.1734 28.1503C56.0001 28.1503 53.5748 28.7623 51.8974 29.9863C50.2654 31.2103 49.4494 33.0463 49.4494 35.4943C49.4494 37.9423 50.2654 39.801 51.8974 41.0703C53.5748 42.2943 56.0001 42.9063 59.1734 42.9063Z" fill="white"/>
</svg>
