<svg width="771" height="601" viewBox="0 0 771 601" fill="none" xmlns="http://www.w3.org/2000/svg">
<path d="M57.3701 599.438C57.3701 599.438 -46.7505 465.155 61.8243 348.28C182.514 218.376 68.4877 73.0208 188.75 21.2584C358.329 -51.7216 388.724 92.6008 578.614 56.8228C737.183 26.9544 733.833 260.384 686.975 343.688C648.135 412.752 797.866 446.999 721.219 599.118L57.3701 599.438Z" fill="#EBF3FA"/>
<g opacity="0.3">
<path opacity="0.3" d="M451.332 240.448C451.332 240.448 467.795 160.49 530.795 149.917C530.795 149.917 543.052 148.066 547.542 161.487C552.032 174.908 527.552 175.727 512.586 181.601C497.62 187.475 463.02 211.612 451.332 240.448Z" fill="#AEC3FF"/>
</g>
<g opacity="0.3">
<path opacity="0.3" d="M449.444 225.638C449.444 225.638 440.963 160.063 486.467 135.357C486.467 135.357 495.375 130.693 502.359 139.807C509.343 148.92 490.814 155.969 480.872 164.406C470.966 172.879 450.798 200.433 449.444 225.638Z" fill="#AEC3FF"/>
</g>
<path d="M193.917 201.644C201.65 179.714 238.922 189.468 238.922 189.468C238.922 189.468 261.692 230.515 269.103 232.01C276.515 233.506 256.489 193.1 256.489 193.1C271.063 192.779 306.625 213.178 306.625 213.178C306.625 213.178 300.924 258.71 308.478 258.319C315.997 257.927 311.471 217.735 311.471 217.735C325.155 222.968 337.021 240.234 337.021 240.234C351.381 268.002 314.964 285.019 314.964 285.019C314.964 285.019 313.324 300.825 321.805 319.729C321.805 319.729 323.765 323.253 325.582 329.127L321.769 328.842C321.52 327.81 321.271 326.778 320.95 325.816C320.95 325.816 320.95 325.816 320.95 325.781V325.745C320.736 325.14 320.415 324.286 320.023 323.218C319.026 320.868 318.349 319.124 317.957 317.842C314.999 310.437 310.652 300.718 307.445 298.511C307.445 298.511 307.908 297.942 308.407 296.838C308.122 297.372 307.801 297.942 307.445 298.511C299.891 312.004 267.037 311.932 249.113 306.877C231.19 301.822 239.492 297.265 249.897 289.647C260.302 282.028 280.684 285.731 286.991 282.918C293.298 280.106 284.675 276.19 272.453 276.226C260.266 276.261 253.282 287.938 233.541 288.365C213.8 288.792 201.578 250.843 201.578 250.843C214.798 256.04 239.635 250.344 240.917 245.752C242.2 241.16 206.211 238.988 200.723 237.172C195.164 235.499 186.185 223.573 193.917 201.644Z" fill="#CDE0FB"/>
<path d="M136.761 546.43C123.256 522.862 160.35 497.408 160.35 497.408C160.35 497.408 214.05 508.622 221.034 503.211C227.983 497.8 176.991 484.664 176.991 484.664C187.824 471.527 233.042 455.721 233.042 455.721C233.042 455.721 268.961 495.486 274.377 488.544C279.793 481.602 240.775 454.938 240.775 454.938C255.848 446.821 280.185 449.526 280.185 449.526C315.747 458.035 302.955 503.211 302.955 503.211C302.955 503.211 315.712 516.739 338.873 523.681C338.873 523.681 343.47 524.642 350.062 527.49L346.891 530.659C345.786 530.054 344.682 529.52 343.577 529.057C343.577 529.057 343.577 529.057 343.541 529.057C343.541 529.057 343.506 529.057 343.506 529.021C342.793 528.736 341.795 528.38 340.548 527.918C337.698 526.992 335.631 526.244 334.205 525.639C325.368 522.613 313.467 519.053 309.084 520.192C309.084 520.192 308.941 519.338 308.3 518.056C308.549 518.733 308.799 519.445 309.084 520.192C315.249 537.174 290.127 566.116 271.954 578.078C253.781 590.04 256.097 579.217 257.344 564.23C258.556 549.242 277.406 534.076 279.722 526.351C282.038 518.626 271.99 523.254 262.725 534.076C253.46 544.899 258.449 559.958 243.768 577.686C229.087 595.451 186.185 577.295 186.185 577.295C200.866 569.57 214.798 543.332 211.698 538.704C208.598 534.076 179.236 564.194 173.428 567.647C167.655 571.136 150.266 569.961 136.761 546.43Z" fill="#AFCDFB"/>
<g opacity="0.5">
<path opacity="0.5" d="M654.478 232.331C651.841 207.909 611.148 208.942 611.148 208.942C611.148 208.942 577.795 245.645 569.813 245.36C561.831 245.111 592.191 208.408 592.191 208.408C577.296 204.527 535.783 216.952 535.783 216.952C535.783 216.952 530.616 265.118 522.955 262.911C515.294 260.704 529.69 220.476 529.69 220.476C514.368 222.541 497.976 237.422 497.976 237.422C476.489 262.52 509.807 288.792 509.807 288.792C509.807 288.792 507.669 305.453 494.377 322.826C494.377 322.826 491.491 325.959 488.213 331.548L492.204 332.189C492.703 331.156 493.237 330.195 493.772 329.27C493.772 329.27 493.772 329.234 493.807 329.234C494.164 328.664 494.698 327.846 495.375 326.849C496.979 324.642 498.083 323.04 498.796 321.829C503.642 314.923 510.448 305.987 514.296 304.528C514.296 304.528 513.94 303.851 513.726 302.57C513.904 303.21 514.083 303.851 514.296 304.528C518.786 320.227 552.567 328.095 572.236 327.24C591.906 326.35 584.458 319.693 575.586 309.334C566.713 298.974 544.87 297.87 539.062 293.456C533.253 289.042 543.088 287.084 555.595 290.074C568.138 293.064 572.45 306.735 592.654 311.968C612.858 317.201 634.594 281.138 634.594 281.138C619.735 283.274 595.612 271.455 595.398 266.4C595.184 261.38 632.706 267.824 638.799 267.29C644.964 266.827 657.079 256.752 654.478 232.331Z" fill="#AFCDFB"/>
</g>
<g opacity="0.2">
<path opacity="0.2" d="M675.858 529.306C702.832 507.198 669.907 459.744 669.907 459.744C669.907 459.744 600.351 448.743 594.471 439.096C588.592 429.448 655.761 436.889 655.761 436.889C648.777 416.205 601.741 376.653 601.741 376.653C601.741 376.653 540.487 408.017 537.173 397.23C533.859 386.443 592.832 372.239 592.832 372.239C578.436 355.649 548.006 347.817 548.006 347.817C501.468 341.837 496.195 401.823 496.195 401.823C496.195 401.823 474.743 412.218 443.742 410.011C443.742 410.011 437.756 409.049 428.563 409.477L430.914 414.71C432.518 414.496 434.086 414.354 435.618 414.318H435.654C435.689 414.318 435.689 414.318 435.725 414.318C436.687 414.318 438.077 414.318 439.751 414.318C443.6 414.496 446.379 414.532 448.375 414.496C460.347 414.852 476.24 415.991 481.015 419.409C481.015 419.409 481.585 418.448 482.903 417.202C482.298 417.914 481.656 418.626 481.015 419.409C465.871 436.995 482.797 483.133 499.117 505.775C515.437 528.38 517.61 514.354 522.991 495.807C528.372 477.259 512.693 450.488 513.441 440.164C514.189 429.84 524.131 439.986 530.331 457.145C536.532 474.34 523.632 490.11 533.182 518.092C542.696 546.074 602.453 543.831 602.453 543.831C588.342 527.882 583.639 490.075 589.447 485.91C595.255 481.744 616.778 531.264 622.159 538.064C627.504 544.899 648.884 551.414 675.858 529.306Z" fill="#AFCDFB"/>
</g>
<path d="M261.406 363.481C260.124 366.934 257.914 370.922 255.563 371.918C252.926 373.058 251.821 374.624 251.821 374.624L249.683 373.378L247.153 371.883C247.153 371.883 247.224 371.598 247.331 371.135C247.438 370.672 247.652 370.032 247.902 369.32C247.902 369.32 248.685 368.323 248.187 367.041C247.723 365.795 247.795 363.837 248.614 362.662C249.434 361.488 250.218 358.568 250.717 358.64C251.892 358.853 250.146 362.876 250.645 363.588C251.108 364.264 251.679 364.015 251.786 363.98C251.786 363.98 251.786 363.98 251.821 363.98C255.171 362.52 259.197 354.617 261.015 355.685C261.692 356.112 261.977 362.022 261.406 363.481Z" fill="#FFB27D"/>
<path d="M249.861 368.252L254.031 371.206C254.316 371.42 254.743 371.349 254.957 371.064L265.683 355.827C265.896 355.542 265.825 355.115 265.54 354.902L261.371 351.947C261.086 351.733 260.658 351.804 260.445 352.089L249.719 367.326C249.505 367.646 249.576 368.038 249.861 368.252Z" fill="#2B478B"/>
<path d="M253.71 370.957L256.169 372.666C256.382 372.808 256.703 372.773 256.881 372.559L267.785 357.073C267.928 356.86 267.892 356.539 267.678 356.361L265.219 354.652C265.006 354.51 264.685 354.546 264.507 354.759L253.603 370.245C253.425 370.494 253.461 370.779 253.71 370.957Z" fill="#233862"/>
<path d="M189.855 346.393C189.855 346.393 211.128 383.488 218.86 390.324L247.189 369.248C247.189 369.248 251.287 370.494 253.104 374.624C253.104 374.624 235.893 409.619 218.967 411.114C202.041 412.609 178.274 369.177 178.274 369.177L189.855 346.393Z" fill="#94B0ED"/>
<path d="M141.679 598.69H129.385C127.853 597.836 126.463 595.914 126.035 593.066C125.43 589.114 121.011 586.942 120.049 583.703C119.087 580.463 124.004 575.906 124.004 575.906L124.824 574.838L125.679 573.735L133.839 575.657C133.839 575.657 134.053 577.615 134.16 580.072C134.267 581.852 134.302 583.916 134.196 585.732C133.946 590.04 135.407 594.703 139.255 595.522C142.07 596.163 141.928 597.872 141.679 598.69Z" fill="#233862"/>
<path d="M213.052 598.69H184.937C183.583 597.053 184.082 590.965 184.296 588.972C184.332 588.58 184.367 588.331 184.367 588.331C184.367 588.331 193.988 580.641 195.307 586.515C195.342 586.693 195.378 586.871 195.449 587.049C197.124 592.532 204.572 595.059 208.883 595.736C211.627 596.234 212.66 597.694 213.052 598.69Z" fill="#233862"/>
<path d="M207.707 441.837C207.707 441.837 206.246 460.028 204.536 481.887C202.22 511.577 199.405 548.032 199.119 554.938C198.656 566.935 196.732 586.124 196.732 586.124C196.732 586.124 192.171 590.68 183.049 588.758C183.049 588.758 174.924 561.382 172.608 532.403C172.573 531.94 172.537 531.442 172.501 530.979C170.328 501.467 166.978 439.345 166.978 439.345L207.707 441.837Z" fill="#F99746"/>
<path d="M207.707 441.837C207.707 441.837 206.246 460.028 204.536 481.887L172.573 532.403C172.537 531.94 172.501 531.442 172.466 530.979C170.292 501.467 166.943 439.345 166.943 439.345L207.707 441.837Z" fill="#ED7D2B"/>
<path d="M201.044 444.008C201.044 444.008 174.746 509.833 157.464 540.805C140.182 571.741 134.766 580.392 134.766 580.392C134.766 580.392 124.86 576.44 123.969 573.735C123.969 573.735 130.597 513.998 142.142 499.438C148.698 491.214 156.359 466.508 156.716 457.892C157.072 449.242 159.068 432.154 159.068 432.154L201.044 444.008Z" fill="#F99746"/>
<path d="M194.487 347.995C184.225 351.235 166.444 342.477 166.444 342.477C166.444 342.477 175.922 335.357 175.423 320.619L183.37 327.027L188.75 331.37C188.75 331.37 188.715 333.933 188.144 338.419C188.002 339.594 189.32 342.192 190.461 343.652C193.596 347.639 194.487 347.995 194.487 347.995Z" fill="#FFB27D"/>
<path d="M188.75 331.37C188.75 331.37 188.715 333.933 188.144 338.419C182.158 337.386 175.388 327.739 175.388 327.739C178.417 326.849 181.089 326.706 183.37 327.027L188.75 331.37Z" fill="#ED975D"/>
<path d="M191.886 331.121C191.886 331.121 174.924 333.933 173.321 323.36C171.717 312.787 168.475 306.023 179.236 303.78C189.997 301.537 192.705 305.239 194.095 308.657C195.521 312.039 196.269 330.124 191.886 331.121Z" fill="#FFB27D"/>
<path d="M208.812 443.332C208.491 443.581 208.135 443.759 207.743 443.759C203.894 443.724 192.634 445.86 183.12 444.863C175.103 444.08 167.976 441.73 160.351 438.312C159.353 437.85 157.001 436.604 157.072 435.5C157.108 434.254 157.215 432.474 157.393 430.196C157.927 422.328 158.89 408.8 157.963 393.207C157.785 390.288 157.714 387.404 157.714 384.592C157.642 363.446 161.847 344.827 170.257 338.526C170.969 338.027 175.388 340.163 179.45 342.157C183.191 344.008 186.969 344.222 190.496 343.51L194.06 346.642C198.371 350.665 203.11 356.112 205.177 364.371C206.923 371.42 207.957 384.094 208.527 397.266C208.776 403.211 208.99 409.227 209.026 414.959V415.172C209.061 415.742 209.061 416.347 209.061 416.917C209.311 431.513 209.097 443.154 208.812 443.332Z" fill="#AEC3FF"/>
<path d="M157.393 430.196C157.927 422.328 158.889 408.8 157.963 393.207C157.785 390.288 157.714 387.404 157.714 384.592C161.241 376.084 164.092 369.889 164.092 369.889H172.965C172.929 369.854 179.414 414.176 157.393 430.196Z" fill="#94B0ED"/>
<path d="M112.032 480.427L149.803 485.803C154.72 486.515 159.317 483.062 160.03 478.149L162.346 461.808C163.059 456.896 159.602 452.303 154.685 451.591L116.913 446.215C111.996 445.503 107.399 448.957 106.687 453.869L104.37 470.21C103.658 475.123 107.114 479.715 112.032 480.427Z" fill="#233862"/>
<path d="M156.823 456.433C155.754 453.763 153.473 451.698 150.551 450.986C150.266 450.915 149.981 450.844 149.696 450.808L142.177 449.74L142.676 446.216C142.783 445.432 142.569 444.649 142.106 444.008C141.643 443.368 140.93 442.94 140.146 442.834L138.187 442.549L130.276 441.41L128.851 441.196C127.211 440.982 125.715 442.086 125.465 443.724L124.967 447.248L111.996 445.397C107.079 444.685 102.446 448.138 101.734 453.086L99.3818 469.64C98.6691 474.553 102.126 479.181 107.079 479.893L144.779 485.269C145.456 485.376 146.097 485.376 146.739 485.34C147.772 485.269 148.77 485.02 149.696 484.592C152.475 483.382 154.578 480.783 155.041 477.579L157.393 461.025C157.607 459.459 157.393 457.857 156.823 456.433ZM127.283 444.044C127.354 443.546 127.746 443.19 128.209 443.118C128.316 443.083 128.423 443.083 128.53 443.118L130.205 443.368L136.405 444.258L139.79 444.756C140.396 444.827 140.823 445.397 140.752 446.002L140.253 449.526L126.748 447.604L127.283 444.044Z" fill="#2B478B"/>
<path d="M140.752 431.726C140.752 431.726 138.757 434.361 138.685 435.429C138.151 442.584 141.429 443.581 132.948 447.533C132.948 447.533 129.349 448.921 129.278 446.109C129.207 443.296 131.773 443.261 131.309 439.345C130.775 434.824 130.81 434.788 133.804 432.403L135.763 429.163L140.752 431.726Z" fill="#FFB27D"/>
<path d="M135.692 433.72C138.899 434.325 142.356 434.076 142.356 434.076C142.356 434.076 151.834 404.848 153.046 402.178C154.257 399.508 181.16 367.896 181.16 367.896L169.936 339.878C169.936 339.878 140.823 388.437 137.866 395.272C132.984 406.557 131.274 431.833 131.274 431.833C131.274 431.833 133.198 433.257 135.692 433.72Z" fill="#AEC3FF"/>
<path d="M173.321 322.363C173.321 322.363 175.067 322.078 174.782 319.693C174.497 317.308 174.497 314.175 176.457 314.745C178.417 315.314 178.488 316.881 179.307 315.991C180.091 315.065 180.127 311.256 185.935 310.971C191.743 310.686 194.095 312.716 196.803 311.541C199.511 310.366 199.654 306.272 199.654 306.272C199.654 306.272 198.87 307.732 197.73 308.194C197.73 308.194 202.22 302.036 197.017 297.835C191.815 293.634 186.505 296.375 183.476 296.553C176.849 296.945 172.537 297.336 170.363 301.715C168.154 306.023 169.045 318.162 173.321 322.363Z" fill="#2B478B"/>
<path d="M137.616 434.859C137.616 434.859 139.541 436.853 139.647 437.672C140.039 440.342 140.93 441.481 140.467 441.766C139.541 442.371 138.329 440.413 137.723 438.633C137.153 436.853 137.616 434.859 137.616 434.859Z" fill="#FFB27D"/>
<path d="M489.923 595.664H305.556C293.975 595.664 284.568 586.266 284.568 574.696V222.363C284.568 210.793 293.975 201.394 305.556 201.394H489.923C501.504 201.394 510.911 210.793 510.911 222.363V574.696C510.876 586.266 501.504 595.664 489.923 595.664Z" fill="#4B59D7"/>
<path d="M489.923 598.299H305.556C292.55 598.299 281.931 587.726 281.931 574.696V222.363C281.931 209.369 292.514 198.76 305.556 198.76H489.923C502.929 198.76 513.548 209.333 513.548 222.363V574.696C513.512 587.726 502.929 598.299 489.923 598.299ZM305.556 204.064C295.436 204.064 287.205 212.288 287.205 222.398V574.696C287.205 584.806 295.436 593.03 305.556 593.03H489.923C500.043 593.03 508.274 584.806 508.274 574.696V222.363C508.274 212.252 500.043 204.029 489.923 204.029H305.556V204.064Z" fill="#2B478B"/>
<g opacity="0.9">
<path opacity="0.9" d="M472.142 305.168H323.302V453.87H472.142V305.168Z" fill="white"/>
</g>
<path d="M344.147 438.277H338.232V444.186H344.147V438.277Z" fill="#2B478B"/>
<path d="M350.062 438.277H344.147V444.186H350.062V438.277Z" fill="#2B478B"/>
<path d="M355.977 438.277H350.062V444.186H355.977V438.277Z" fill="#2B478B"/>
<path d="M361.893 438.277H355.977V444.186H361.893V438.277Z" fill="#2B478B"/>
<path d="M367.808 438.277H361.893V444.186H367.808V438.277Z" fill="#2B478B"/>
<path d="M379.638 438.277H373.723V444.186H379.638V438.277Z" fill="#2B478B"/>
<path d="M385.553 438.277H379.638V444.186H385.553V438.277Z" fill="#2B478B"/>
<path d="M403.299 438.277H397.384V444.186H403.299V438.277Z" fill="#2B478B"/>
<path d="M415.485 438.277H409.214V444.186H415.485V438.277Z" fill="#2B478B"/>
<path d="M421.4 438.277H415.485V444.186H421.4V438.277Z" fill="#2B478B"/>
<path d="M433.231 438.277H427.315V444.186H433.231V438.277Z" fill="#2B478B"/>
<path d="M439.146 438.277H433.23V444.186H439.146V438.277Z" fill="#2B478B"/>
<path d="M445.061 438.277H439.146V444.186H445.061V438.277Z" fill="#2B478B"/>
<path d="M450.976 438.277H445.061V444.186H450.976V438.277Z" fill="#2B478B"/>
<path d="M456.891 438.277H450.976V444.186H456.891V438.277Z" fill="#2B478B"/>
<path d="M463.163 438.277H456.891V444.186H463.163V438.277Z" fill="#2B478B"/>
<path d="M338.232 438.277H332.317V444.186H338.232V438.277Z" fill="#2B478B"/>
<path d="M367.808 432.367H361.893V438.277H367.808V432.367Z" fill="#2B478B"/>
<path d="M385.553 432.367H379.638V438.277H385.553V432.367Z" fill="#2B478B"/>
<path d="M397.384 432.367H391.468V438.277H397.384V432.367Z" fill="#2B478B"/>
<path d="M403.299 432.367H397.384V438.277H403.299V432.367Z" fill="#2B478B"/>
<path d="M409.214 432.367H403.299V438.277H409.214V432.367Z" fill="#2B478B"/>
<path d="M415.485 432.367H409.214V438.277H415.485V432.367Z" fill="#2B478B"/>
<path d="M433.231 432.367H427.315V438.277H433.231V432.367Z" fill="#2B478B"/>
<path d="M463.163 432.367H456.891V438.277H463.163V432.367Z" fill="#2B478B"/>
<path d="M338.232 432.367H332.317V438.277H338.232V432.367Z" fill="#2B478B"/>
<path d="M350.062 426.458H344.147V432.367H350.062V426.458Z" fill="#2B478B"/>
<path d="M355.977 426.458H350.062V432.367H355.977V426.458Z" fill="#2B478B"/>
<path d="M367.808 426.458H361.893V432.367H367.808V426.458Z" fill="#2B478B"/>
<path d="M379.638 426.458H373.723V432.367H379.638V426.458Z" fill="#2B478B"/>
<path d="M385.553 426.458H379.638V432.367H385.553V426.458Z" fill="#2B478B"/>
<path d="M391.468 426.458H385.553V432.367H391.468V426.458Z" fill="#2B478B"/>
<path d="M403.299 426.458H397.384V432.367H403.299V426.458Z" fill="#2B478B"/>
<path d="M409.214 426.458H403.299V432.367H409.214V426.458Z" fill="#2B478B"/>
<path d="M415.485 426.458H409.214V432.367H415.485V426.458Z" fill="#2B478B"/>
<path d="M421.4 426.458H415.485V432.367H421.4V426.458Z" fill="#2B478B"/>
<path d="M433.231 426.458H427.315V432.367H433.231V426.458Z" fill="#2B478B"/>
<path d="M445.061 426.458H439.146V432.367H445.061V426.458Z" fill="#2B478B"/>
<path d="M450.976 426.458H445.061V432.367H450.976V426.458Z" fill="#2B478B"/>
<path d="M463.163 426.458H456.891V432.367H463.163V426.458Z" fill="#2B478B"/>
<path d="M338.232 426.458H332.317V432.367H338.232V426.458Z" fill="#2B478B"/>
<path d="M350.062 420.548H344.147V426.458H350.062V420.548Z" fill="#2B478B"/>
<path d="M355.977 420.548H350.062V426.458H355.977V420.548Z" fill="#2B478B"/>
<path d="M367.808 420.548H361.893V426.458H367.808V420.548Z" fill="#2B478B"/>
<path d="M379.638 420.548H373.723V426.458H379.638V420.548Z" fill="#2B478B"/>
<path d="M391.468 420.548H385.553V426.458H391.468V420.548Z" fill="#2B478B"/>
<path d="M403.299 420.548H397.384V426.458H403.299V420.548Z" fill="#2B478B"/>
<path d="M433.231 420.548H427.315V426.458H433.231V420.548Z" fill="#2B478B"/>
<path d="M445.061 420.548H439.146V426.458H445.061V420.548Z" fill="#2B478B"/>
<path d="M450.976 420.548H445.061V426.458H450.976V420.548Z" fill="#2B478B"/>
<path d="M463.163 420.548H456.891V426.458H463.163V420.548Z" fill="#2B478B"/>
<path d="M338.232 420.548H332.317V426.458H338.232V420.548Z" fill="#2B478B"/>
<path d="M367.808 414.638H361.893V420.548H367.808V414.638Z" fill="#2B478B"/>
<path d="M379.638 414.638H373.723V420.548H379.638V414.638Z" fill="#2B478B"/>
<path d="M385.553 414.638H379.638V420.548H385.553V414.638Z" fill="#2B478B"/>
<path d="M391.468 414.638H385.553V420.548H391.468V414.638Z" fill="#2B478B"/>
<path d="M403.299 414.638H397.384V420.548H403.299V414.638Z" fill="#2B478B"/>
<path d="M409.214 414.638H403.299V420.548H409.214V414.638Z" fill="#2B478B"/>
<path d="M421.4 414.638H415.485V420.548H421.4V414.638Z" fill="#2B478B"/>
<path d="M433.231 414.638H427.315V420.548H433.231V414.638Z" fill="#2B478B"/>
<path d="M463.163 414.638H456.891V420.548H463.163V414.638Z" fill="#2B478B"/>
<path d="M338.232 414.638H332.317V420.548H338.232V414.638Z" fill="#2B478B"/>
<path d="M344.147 408.729H338.232V414.638H344.147V408.729Z" fill="#2B478B"/>
<path d="M350.062 408.729H344.147V414.638H350.062V408.729Z" fill="#2B478B"/>
<path d="M355.977 408.729H350.062V414.638H355.977V408.729Z" fill="#2B478B"/>
<path d="M361.893 408.729H355.977V414.638H361.893V408.729Z" fill="#2B478B"/>
<path d="M367.808 408.729H361.893V414.638H367.808V408.729Z" fill="#2B478B"/>
<path d="M379.638 408.729H373.723V414.638H379.638V408.729Z" fill="#2B478B"/>
<path d="M391.468 408.729H385.553V414.638H391.468V408.729Z" fill="#2B478B"/>
<path d="M397.384 408.729H391.468V414.638H397.384V408.729Z" fill="#2B478B"/>
<path d="M409.214 408.729H403.299V414.638H409.214V408.729Z" fill="#2B478B"/>
<path d="M433.231 408.729H427.315V414.638H433.231V408.729Z" fill="#2B478B"/>
<path d="M439.146 408.729H433.23V414.638H439.146V408.729Z" fill="#2B478B"/>
<path d="M445.061 408.729H439.146V414.638H445.061V408.729Z" fill="#2B478B"/>
<path d="M450.976 408.729H445.061V414.638H450.976V408.729Z" fill="#2B478B"/>
<path d="M456.891 408.729H450.976V414.638H456.891V408.729Z" fill="#2B478B"/>
<path d="M463.163 408.729H456.891V414.638H463.163V408.729Z" fill="#2B478B"/>
<path d="M338.232 408.729H332.317V414.638H338.232V408.729Z" fill="#2B478B"/>
<path d="M397.384 402.819H391.468V408.729H397.384V402.819Z" fill="#2B478B"/>
<path d="M403.299 402.819H397.384V408.729H403.299V402.819Z" fill="#2B478B"/>
<path d="M409.214 402.819H403.299V408.729H409.214V402.819Z" fill="#2B478B"/>
<path d="M421.4 402.819H415.485V408.729H421.4V402.819Z" fill="#2B478B"/>
<path d="M344.147 396.91H338.232V402.819H344.147V396.91Z" fill="#2B478B"/>
<path d="M350.062 396.91H344.147V402.819H350.062V396.91Z" fill="#2B478B"/>
<path d="M355.977 396.91H350.062V402.819H355.977V396.91Z" fill="#2B478B"/>
<path d="M361.893 396.91H355.977V402.819H361.893V396.91Z" fill="#2B478B"/>
<path d="M379.638 396.91H373.723V402.819H379.638V396.91Z" fill="#2B478B"/>
<path d="M385.553 396.91H379.638V402.819H385.553V396.91Z" fill="#2B478B"/>
<path d="M391.468 396.91H385.553V402.819H391.468V396.91Z" fill="#2B478B"/>
<path d="M403.299 396.91H397.384V402.819H403.299V396.91Z" fill="#2B478B"/>
<path d="M409.214 396.91H403.299V402.819H409.214V396.91Z" fill="#2B478B"/>
<path d="M415.485 396.91H409.214V402.819H415.485V396.91Z" fill="#2B478B"/>
<path d="M421.4 396.91H415.485V402.819H421.4V396.91Z" fill="#2B478B"/>
<path d="M427.315 396.91H421.4V402.819H427.315V396.91Z" fill="#2B478B"/>
<path d="M433.231 396.91H427.315V402.819H433.231V396.91Z" fill="#2B478B"/>
<path d="M439.146 396.91H433.23V402.819H439.146V396.91Z" fill="#2B478B"/>
<path d="M445.061 396.91H439.146V402.819H445.061V396.91Z" fill="#2B478B"/>
<path d="M456.891 396.91H450.976V402.819H456.891V396.91Z" fill="#2B478B"/>
<path d="M463.163 396.91H456.891V402.819H463.163V396.91Z" fill="#2B478B"/>
<path d="M350.062 391H344.147V396.91H350.062V391Z" fill="#2B478B"/>
<path d="M355.977 391H350.062V396.91H355.977V391Z" fill="#2B478B"/>
<path d="M373.723 391H367.808V396.91H373.723V391Z" fill="#2B478B"/>
<path d="M379.638 391H373.723V396.91H379.638V391Z" fill="#2B478B"/>
<path d="M391.468 391H385.553V396.91H391.468V391Z" fill="#2B478B"/>
<path d="M409.214 391H403.299V396.91H409.214V391Z" fill="#2B478B"/>
<path d="M421.4 391H415.485V396.91H421.4V391Z" fill="#2B478B"/>
<path d="M427.315 391H421.4V396.91H427.315V391Z" fill="#2B478B"/>
<path d="M439.146 391H433.23V396.91H439.146V391Z" fill="#2B478B"/>
<path d="M445.061 391H439.146V396.91H445.061V391Z" fill="#2B478B"/>
<path d="M344.147 385.09H338.232V391H344.147V385.09Z" fill="#2B478B"/>
<path d="M355.977 385.09H350.062V391H355.977V385.09Z" fill="#2B478B"/>
<path d="M361.893 385.09H355.977V391H361.893V385.09Z" fill="#2B478B"/>
<path d="M367.808 385.09H361.893V391H367.808V385.09Z" fill="#2B478B"/>
<path d="M373.723 385.09H367.808V391H373.723V385.09Z" fill="#2B478B"/>
<path d="M385.553 385.09H379.638V391H385.553V385.09Z" fill="#2B478B"/>
<path d="M391.468 385.09H385.553V391H391.468V385.09Z" fill="#2B478B"/>
<path d="M397.384 385.09H391.468V391H397.384V385.09Z" fill="#2B478B"/>
<path d="M403.299 385.09H397.384V391H403.299V385.09Z" fill="#2B478B"/>
<path d="M409.214 385.09H403.299V391H409.214V385.09Z" fill="#2B478B"/>
<path d="M415.485 385.09H409.214V391H415.485V385.09Z" fill="#2B478B"/>
<path d="M445.061 385.09H439.146V391H445.061V385.09Z" fill="#2B478B"/>
<path d="M450.976 385.09H445.061V391H450.976V385.09Z" fill="#2B478B"/>
<path d="M463.163 385.09H456.891V391H463.163V385.09Z" fill="#2B478B"/>
<path d="M338.232 385.09H332.317V391H338.232V385.09Z" fill="#2B478B"/>
<path d="M344.147 379.181H338.232V385.09H344.147V379.181Z" fill="#2B478B"/>
<path d="M350.062 379.181H344.147V385.09H350.062V379.181Z" fill="#2B478B"/>
<path d="M355.977 379.181H350.062V385.09H355.977V379.181Z" fill="#2B478B"/>
<path d="M379.638 379.181H373.723V385.09H379.638V379.181Z" fill="#2B478B"/>
<path d="M385.553 379.181H379.638V385.09H385.553V379.181Z" fill="#2B478B"/>
<path d="M409.214 379.181H403.299V385.09H409.214V379.181Z" fill="#2B478B"/>
<path d="M427.315 379.181H421.4V385.09H427.315V379.181Z" fill="#2B478B"/>
<path d="M433.231 379.181H427.315V385.09H433.231V379.181Z" fill="#2B478B"/>
<path d="M445.061 379.181H439.146V385.09H445.061V379.181Z" fill="#2B478B"/>
<path d="M450.976 379.181H445.061V385.09H450.976V379.181Z" fill="#2B478B"/>
<path d="M456.891 379.181H450.976V385.09H456.891V379.181Z" fill="#2B478B"/>
<path d="M463.163 379.181H456.891V385.09H463.163V379.181Z" fill="#2B478B"/>
<path d="M338.232 379.181H332.317V385.09H338.232V379.181Z" fill="#2B478B"/>
<path d="M355.977 373.236H350.062V379.145H355.977V373.236Z" fill="#2B478B"/>
<path d="M361.893 373.236H355.977V379.145H361.893V373.236Z" fill="#2B478B"/>
<path d="M367.808 373.236H361.893V379.145H367.808V373.236Z" fill="#2B478B"/>
<path d="M373.723 373.236H367.808V379.145H373.723V373.236Z" fill="#2B478B"/>
<path d="M379.638 373.236H373.723V379.145H379.638V373.236Z" fill="#2B478B"/>
<path d="M385.553 373.236H379.638V379.145H385.553V373.236Z" fill="#2B478B"/>
<path d="M403.299 373.236H397.384V379.145H403.299V373.236Z" fill="#2B478B"/>
<path d="M421.4 373.236H415.485V379.145H421.4V373.236Z" fill="#2B478B"/>
<path d="M427.315 373.236H421.4V379.145H427.315V373.236Z" fill="#2B478B"/>
<path d="M450.976 373.236H445.061V379.145H450.976V373.236Z" fill="#2B478B"/>
<path d="M338.232 373.236H332.317V379.145H338.232V373.236Z" fill="#2B478B"/>
<path d="M344.147 367.326H338.232V373.236H344.147V367.326Z" fill="#2B478B"/>
<path d="M350.062 367.326H344.147V373.236H350.062V367.326Z" fill="#2B478B"/>
<path d="M355.977 367.326H350.062V373.236H355.977V367.326Z" fill="#2B478B"/>
<path d="M361.893 367.326H355.977V373.236H361.893V367.326Z" fill="#2B478B"/>
<path d="M373.723 367.326H367.808V373.236H373.723V367.326Z" fill="#2B478B"/>
<path d="M385.553 367.326H379.638V373.236H385.553V367.326Z" fill="#2B478B"/>
<path d="M391.468 367.326H385.553V373.236H391.468V367.326Z" fill="#2B478B"/>
<path d="M403.299 367.326H397.384V373.236H403.299V367.326Z" fill="#2B478B"/>
<path d="M409.214 367.326H403.299V373.236H409.214V367.326Z" fill="#2B478B"/>
<path d="M415.485 367.326H409.214V373.236H415.485V367.326Z" fill="#2B478B"/>
<path d="M421.4 367.326H415.485V373.236H421.4V367.326Z" fill="#2B478B"/>
<path d="M433.231 367.326H427.315V373.236H433.231V367.326Z" fill="#2B478B"/>
<path d="M439.146 367.326H433.23V373.236H439.146V367.326Z" fill="#2B478B"/>
<path d="M445.061 367.326H439.146V373.236H445.061V367.326Z" fill="#2B478B"/>
<path d="M450.976 367.326H445.061V373.236H450.976V367.326Z" fill="#2B478B"/>
<path d="M463.163 367.326H456.891V373.236H463.163V367.326Z" fill="#2B478B"/>
<path d="M344.147 361.417H338.232V367.326H344.147V361.417Z" fill="#2B478B"/>
<path d="M355.977 361.417H350.062V367.326H355.977V361.417Z" fill="#2B478B"/>
<path d="M367.808 361.417H361.893V367.326H367.808V361.417Z" fill="#2B478B"/>
<path d="M373.723 361.417H367.808V367.326H373.723V361.417Z" fill="#2B478B"/>
<path d="M391.468 361.417H385.553V367.326H391.468V361.417Z" fill="#2B478B"/>
<path d="M397.384 361.417H391.468V367.326H397.384V361.417Z" fill="#2B478B"/>
<path d="M403.299 361.417H397.384V367.326H403.299V361.417Z" fill="#2B478B"/>
<path d="M415.485 361.417H409.214V367.326H415.485V361.417Z" fill="#2B478B"/>
<path d="M421.4 361.417H415.485V367.326H421.4V361.417Z" fill="#2B478B"/>
<path d="M427.315 361.417H421.4V367.326H427.315V361.417Z" fill="#2B478B"/>
<path d="M439.146 361.417H433.23V367.326H439.146V361.417Z" fill="#2B478B"/>
<path d="M450.976 361.417H445.061V367.326H450.976V361.417Z" fill="#2B478B"/>
<path d="M456.891 361.417H450.976V367.326H456.891V361.417Z" fill="#2B478B"/>
<path d="M463.163 361.417H456.891V367.326H463.163V361.417Z" fill="#2B478B"/>
<path d="M338.232 361.417H332.317V367.326H338.232V361.417Z" fill="#2B478B"/>
<path d="M344.147 355.507H338.232V361.417H344.147V355.507Z" fill="#2B478B"/>
<path d="M367.808 355.507H361.893V361.417H367.808V355.507Z" fill="#2B478B"/>
<path d="M373.723 355.507H367.808V361.417H373.723V355.507Z" fill="#2B478B"/>
<path d="M385.553 355.507H379.638V361.417H385.553V355.507Z" fill="#2B478B"/>
<path d="M391.468 355.507H385.553V361.417H391.468V355.507Z" fill="#2B478B"/>
<path d="M403.299 355.507H397.384V361.417H403.299V355.507Z" fill="#2B478B"/>
<path d="M409.214 355.507H403.299V361.417H409.214V355.507Z" fill="#2B478B"/>
<path d="M421.4 355.507H415.485V361.417H421.4V355.507Z" fill="#2B478B"/>
<path d="M427.315 355.507H421.4V361.417H427.315V355.507Z" fill="#2B478B"/>
<path d="M433.231 355.507H427.315V361.417H433.231V355.507Z" fill="#2B478B"/>
<path d="M439.146 355.507H433.23V361.417H439.146V355.507Z" fill="#2B478B"/>
<path d="M445.061 355.507H439.146V361.417H445.061V355.507Z" fill="#2B478B"/>
<path d="M450.976 355.507H445.061V361.417H450.976V355.507Z" fill="#2B478B"/>
<path d="M338.232 355.507H332.317V361.417H338.232V355.507Z" fill="#2B478B"/>
<path d="M385.553 349.597H379.638V355.507H385.553V349.597Z" fill="#2B478B"/>
<path d="M397.384 349.597H391.468V355.507H397.384V349.597Z" fill="#2B478B"/>
<path d="M403.299 349.597H397.384V355.507H403.299V349.597Z" fill="#2B478B"/>
<path d="M415.485 349.597H409.214V355.507H415.485V349.597Z" fill="#2B478B"/>
<path d="M421.4 349.597H415.485V355.507H421.4V349.597Z" fill="#2B478B"/>
<path d="M427.315 349.597H421.4V355.507H427.315V349.597Z" fill="#2B478B"/>
<path d="M344.147 343.688H338.232V349.597H344.147V343.688Z" fill="#2B478B"/>
<path d="M350.062 343.688H344.147V349.597H350.062V343.688Z" fill="#2B478B"/>
<path d="M355.977 343.688H350.062V349.597H355.977V343.688Z" fill="#2B478B"/>
<path d="M361.893 343.688H355.977V349.597H361.893V343.688Z" fill="#2B478B"/>
<path d="M367.808 343.688H361.893V349.597H367.808V343.688Z" fill="#2B478B"/>
<path d="M379.638 343.688H373.723V349.597H379.638V343.688Z" fill="#2B478B"/>
<path d="M385.553 343.688H379.638V349.597H385.553V343.688Z" fill="#2B478B"/>
<path d="M403.299 343.688H397.384V349.597H403.299V343.688Z" fill="#2B478B"/>
<path d="M427.315 343.688H421.4V349.597H427.315V343.688Z" fill="#2B478B"/>
<path d="M433.231 343.688H427.315V349.597H433.231V343.688Z" fill="#2B478B"/>
<path d="M445.061 343.688H439.146V349.597H445.061V343.688Z" fill="#2B478B"/>
<path d="M463.163 343.688H456.891V349.597H463.163V343.688Z" fill="#2B478B"/>
<path d="M338.232 343.688H332.317V349.597H338.232V343.688Z" fill="#2B478B"/>
<path d="M367.808 337.778H361.893V343.688H367.808V337.778Z" fill="#2B478B"/>
<path d="M415.485 337.778H409.214V343.688H415.485V337.778Z" fill="#2B478B"/>
<path d="M421.4 337.778H415.485V343.688H421.4V337.778Z" fill="#2B478B"/>
<path d="M433.231 337.778H427.315V343.688H433.231V337.778Z" fill="#2B478B"/>
<path d="M439.146 337.778H433.23V343.688H439.146V337.778Z" fill="#2B478B"/>
<path d="M450.976 337.778H445.061V343.688H450.976V337.778Z" fill="#2B478B"/>
<path d="M456.891 337.778H450.976V343.688H456.891V337.778Z" fill="#2B478B"/>
<path d="M463.163 337.778H456.891V343.688H463.163V337.778Z" fill="#2B478B"/>
<path d="M338.232 337.778H332.317V343.688H338.232V337.778Z" fill="#2B478B"/>
<path d="M350.062 331.868H344.147V337.778H350.062V331.868Z" fill="#2B478B"/>
<path d="M355.977 331.868H350.062V337.778H355.977V331.868Z" fill="#2B478B"/>
<path d="M367.808 331.868H361.893V337.778H367.808V331.868Z" fill="#2B478B"/>
<path d="M379.638 331.868H373.723V337.778H379.638V331.868Z" fill="#2B478B"/>
<path d="M385.553 331.868H379.638V337.778H385.553V331.868Z" fill="#2B478B"/>
<path d="M397.384 331.868H391.468V337.778H397.384V331.868Z" fill="#2B478B"/>
<path d="M403.299 331.868H397.384V337.778H403.299V331.868Z" fill="#2B478B"/>
<path d="M415.485 331.868H409.214V337.778H415.485V331.868Z" fill="#2B478B"/>
<path d="M439.146 331.868H433.23V337.778H439.146V331.868Z" fill="#2B478B"/>
<path d="M445.061 331.868H439.146V337.778H445.061V331.868Z" fill="#2B478B"/>
<path d="M450.976 331.868H445.061V337.778H450.976V331.868Z" fill="#2B478B"/>
<path d="M338.232 331.868H332.317V337.778H338.232V331.868Z" fill="#2B478B"/>
<path d="M350.062 325.959H344.147V331.868H350.062V325.959Z" fill="#2B478B"/>
<path d="M355.977 325.959H350.062V331.868H355.977V325.959Z" fill="#2B478B"/>
<path d="M367.808 325.959H361.893V331.868H367.808V325.959Z" fill="#2B478B"/>
<path d="M379.638 325.959H373.723V331.868H379.638V325.959Z" fill="#2B478B"/>
<path d="M391.468 325.959H385.553V331.868H391.468V325.959Z" fill="#2B478B"/>
<path d="M397.384 325.959H391.468V331.868H397.384V325.959Z" fill="#2B478B"/>
<path d="M403.299 325.959H397.384V331.868H403.299V325.959Z" fill="#2B478B"/>
<path d="M409.214 325.959H403.299V331.868H409.214V325.959Z" fill="#2B478B"/>
<path d="M415.485 325.959H409.214V331.868H415.485V325.959Z" fill="#2B478B"/>
<path d="M427.315 325.959H421.4V331.868H427.315V325.959Z" fill="#2B478B"/>
<path d="M433.231 325.959H427.315V331.868H433.231V325.959Z" fill="#2B478B"/>
<path d="M439.146 325.959H433.23V331.868H439.146V325.959Z" fill="#2B478B"/>
<path d="M450.976 325.959H445.061V331.868H450.976V325.959Z" fill="#2B478B"/>
<path d="M456.891 325.959H450.976V331.868H456.891V325.959Z" fill="#2B478B"/>
<path d="M463.163 325.959H456.891V331.868H463.163V325.959Z" fill="#2B478B"/>
<path d="M338.232 325.959H332.317V331.868H338.232V325.959Z" fill="#2B478B"/>
<path d="M367.808 320.049H361.893V325.959H367.808V320.049Z" fill="#2B478B"/>
<path d="M391.468 320.049H385.553V325.959H391.468V320.049Z" fill="#2B478B"/>
<path d="M397.384 320.049H391.468V325.959H397.384V320.049Z" fill="#2B478B"/>
<path d="M409.214 320.049H403.299V325.959H409.214V320.049Z" fill="#2B478B"/>
<path d="M415.485 320.049H409.214V325.959H415.485V320.049Z" fill="#2B478B"/>
<path d="M421.4 320.049H415.485V325.959H421.4V320.049Z" fill="#2B478B"/>
<path d="M427.315 320.049H421.4V325.959H427.315V320.049Z" fill="#2B478B"/>
<path d="M456.891 320.049H450.976V325.959H456.891V320.049Z" fill="#2B478B"/>
<path d="M338.232 320.049H332.317V325.959H338.232V320.049Z" fill="#2B478B"/>
<path d="M344.147 314.14H338.232V320.049H344.147V314.14Z" fill="#2B478B"/>
<path d="M350.062 314.14H344.147V320.049H350.062V314.14Z" fill="#2B478B"/>
<path d="M355.977 314.14H350.062V320.049H355.977V314.14Z" fill="#2B478B"/>
<path d="M361.893 314.14H355.977V320.049H361.893V314.14Z" fill="#2B478B"/>
<path d="M367.808 314.14H361.893V320.049H367.808V314.14Z" fill="#2B478B"/>
<path d="M379.638 314.14H373.723V320.049H379.638V314.14Z" fill="#2B478B"/>
<path d="M385.553 314.14H379.638V320.049H385.553V314.14Z" fill="#2B478B"/>
<path d="M415.485 314.14H409.214V320.049H415.485V314.14Z" fill="#2B478B"/>
<path d="M427.315 314.14H421.4V320.049H427.315V314.14Z" fill="#2B478B"/>
<path d="M439.146 314.14H433.23V320.049H439.146V314.14Z" fill="#2B478B"/>
<path d="M445.061 314.14H439.146V320.049H445.061V314.14Z" fill="#2B478B"/>
<path d="M463.163 314.14H456.891V320.049H463.163V314.14Z" fill="#2B478B"/>
<path d="M338.232 314.14H332.317V320.049H338.232V314.14Z" fill="#2B478B"/>
<g opacity="0.8">
<g opacity="0.8">
<g opacity="0.8">
<path opacity="0.8" d="M312.54 325.781C311.365 325.781 310.438 324.855 310.438 323.68V295.022C310.438 293.848 311.365 292.922 312.54 292.922H341.475C342.651 292.922 343.577 293.848 343.577 295.022C343.577 296.197 342.651 297.123 341.475 297.123H314.643V323.68C314.643 324.855 313.716 325.781 312.54 325.781Z" fill="white"/>
</g>
</g>
<g opacity="0.8">
<g opacity="0.8">
<path opacity="0.8" d="M482.939 325.923C481.763 325.923 480.837 324.998 480.837 323.823V297.016H454.254C453.078 297.016 452.152 296.09 452.152 294.916C452.152 293.741 453.078 292.815 454.254 292.815H482.939C484.115 292.815 485.042 293.741 485.042 294.916V323.823C485.042 324.998 484.079 325.923 482.939 325.923Z" fill="white"/>
</g>
</g>
</g>
<g opacity="0.8">
<g opacity="0.8">
<g opacity="0.8">
<path opacity="0.8" d="M482.939 469.961H454.005C452.829 469.961 451.902 469.035 451.902 467.86C451.902 466.686 452.829 465.76 454.005 465.76H480.837V439.202C480.837 438.028 481.763 437.102 482.939 437.102C484.115 437.102 485.042 438.028 485.042 439.202V467.86C485.042 469.035 484.079 469.961 482.939 469.961Z" fill="white"/>
</g>
</g>
<g opacity="0.8">
<g opacity="0.8">
<path opacity="0.8" d="M341.225 470.103H312.54C311.365 470.103 310.438 469.177 310.438 468.003V439.06C310.438 437.885 311.365 436.959 312.54 436.959C313.716 436.959 314.643 437.885 314.643 439.06V465.867H341.225C342.401 465.867 343.328 466.792 343.328 467.967C343.328 469.142 342.401 470.103 341.225 470.103Z" fill="white"/>
</g>
</g>
</g>
<path d="M472.142 509.833V513.856C472.142 516.063 470.361 517.843 468.151 517.843H327.293C325.083 517.843 323.302 516.063 323.302 513.856V509.833C323.302 507.626 325.083 505.846 327.293 505.846H468.151C470.361 505.846 472.142 507.661 472.142 509.833Z" fill="white"/>
<path d="M427.315 505.846V517.843H327.293C325.083 517.843 323.302 516.063 323.302 513.856V509.833C323.302 507.626 325.083 505.846 327.293 505.846H427.315Z" fill="#ED7D2B"/>
<path d="M406.47 505.846L395.423 517.843H374.685L385.767 505.846H406.47Z" fill="#F99746"/>
<path d="M427.315 505.846V517.843H408.109L419.191 505.846H427.315Z" fill="#F99746"/>
<path d="M373.153 505.846L362.071 517.843H341.368L352.414 505.846H373.153Z" fill="#F99746"/>
<path d="M339.8 505.846L328.718 517.843H327.186C324.976 517.843 323.195 516.063 323.195 513.856V509.833C323.195 507.626 324.976 505.846 327.186 505.846H339.8Z" fill="#F99746"/>
<path d="M382.453 499.01L383.237 498.085C383.95 498.69 384.662 499.046 385.589 499.046C386.408 499.046 386.907 498.69 386.907 498.085C386.907 497.551 386.622 497.266 385.232 496.946C383.665 496.59 382.738 496.091 382.738 494.703C382.738 493.421 383.807 492.531 385.268 492.531C386.337 492.531 387.228 492.852 387.976 493.457L387.263 494.454C386.586 493.955 385.909 493.706 385.232 493.706C384.484 493.706 384.021 494.098 384.021 494.596C384.021 495.166 384.377 495.415 385.803 495.771C387.37 496.162 388.19 496.732 388.19 497.978C388.19 499.366 387.085 500.185 385.517 500.185C384.448 500.185 383.344 499.794 382.453 499.01Z" fill="white"/>
<path d="M389.437 496.376C389.437 494.276 391.005 492.531 393.286 492.531C394.64 492.531 395.495 492.994 396.208 493.706L395.352 494.667C394.747 494.098 394.105 493.742 393.286 493.742C391.86 493.742 390.827 494.916 390.827 496.376C390.827 497.836 391.86 499.01 393.286 499.01C394.212 499.01 394.782 498.654 395.424 498.049L396.279 498.904C395.495 499.722 394.64 500.221 393.25 500.221C391.041 500.221 389.437 498.548 389.437 496.376Z" fill="white"/>
<path d="M400.27 492.602H401.481L404.759 500.078H403.37L402.621 498.298H399.094L398.345 500.078H396.991L400.27 492.602ZM402.123 497.159L400.84 494.169L399.557 497.159H402.123Z" fill="white"/>
<path d="M406.007 492.674H407.218L411.209 497.8V492.674H412.492V500.114H411.387L407.29 494.81V500.114H406.007V492.674Z" fill="white"/>
<path d="M509.343 440.413C516.221 438.419 523.953 440.698 528.799 445.966C540.772 458.96 531.935 469 537.957 478.078C541.592 483.56 544.62 493.208 533.396 498.904C528.193 501.538 512.729 515.315 509.593 515.636C477.523 518.911 476.953 486.408 487.75 476.974C502.929 463.731 489.032 446.322 509.343 440.413Z" fill="#233862"/>
<path d="M526.127 490.68C526.127 490.68 555.417 504.849 560.905 504.6C566.392 504.35 600.672 492.318 600.672 492.318L599.816 498.12C599.816 498.12 573.733 513.108 564.611 513.962C555.631 514.817 524.951 505.917 521.993 504.03C519 502.143 517.503 492.567 526.127 490.68Z" fill="#ED985F"/>
<path d="M529.334 504.03C526.697 505.881 523.347 507.376 519.178 508.338C503.535 511.969 497.513 498.726 495.268 489.648C497.406 488.437 499.402 488.152 500.578 488.01C501.718 487.868 502.894 487.796 503.891 487.725C505.637 486.372 508.274 480.89 508.844 472.31L509.593 472.524L521.922 475.906C521.922 475.906 521.352 479.822 521.067 483.524C520.853 486.408 520.817 489.185 521.352 489.861C522.314 490.075 522.884 490.217 522.884 490.217C523.098 490.538 526.661 496.412 529.334 504.03Z" fill="#FFB27D"/>
<path d="M521.922 475.942C521.922 475.942 521.352 479.858 521.067 483.56C514.083 482.848 510.84 476.226 509.557 472.56L521.922 475.942Z" fill="#ED985F"/>
<path d="M523.989 479.644C523.989 479.644 507.383 478.718 508.132 468.43C508.844 458.106 507.205 451.057 517.824 451.2C528.443 451.342 530.224 455.436 530.83 458.925C531.436 462.414 528.336 479.608 523.989 479.644Z" fill="#FFB27D"/>
<path d="M530.759 453.122C528.407 449.847 526.447 450.381 525.271 451.235C516.577 445.61 510.199 452.552 510.199 452.552C508.559 459.886 502.929 463.731 502.929 463.731C502.929 463.731 505.887 466.08 512.907 464.514C521.922 462.52 524.986 454.724 525.414 453.514C526.376 454.51 527.588 455.116 528.514 457.252C529.619 459.779 530.331 461.239 530.331 465.404C530.367 465.404 534.251 458.07 530.759 453.122Z" fill="#233862"/>
<path d="M490.529 537.743C489.033 530.089 484.151 499.509 489.033 489.683C490.779 486.159 497.656 485.838 505.21 486.123C507.562 487.654 516.506 493.386 520.212 492.638C520.247 492.638 520.319 492.602 520.425 492.602C522.171 492.175 522.813 490.965 521.352 489.897C521.352 489.897 524.666 490.146 529.298 491C531.935 491.499 539.133 495.913 539.133 495.913C539.133 495.913 535.855 501.004 530.617 503.211C531.507 511.186 530.189 514.71 521.886 533.186C514.867 548.779 522.849 562.806 522.849 562.806C522.849 562.806 481.585 595.949 481.371 579.075C481.193 566.401 492.453 547.533 490.529 537.743Z" fill="#F99746"/>
<path d="M524.915 598.868C527.16 598.619 529.191 597.373 530.438 595.522C530.652 595.237 530.866 594.917 531.08 594.561C535.783 587.441 537.6 565.689 548.183 542.549C550.749 536.924 559.978 535.892 562.508 529.52C562.508 529.52 568.708 508.836 550.642 508.231C532.576 507.626 502.252 565.76 501.789 571.848C501.29 577.722 489.816 602.82 524.915 598.868Z" fill="#94B0ED"/>
<path d="M596.681 598.762H570.989C570.989 598.762 570.027 594.561 571.702 591.677C573.198 589.15 572.628 587.69 571.523 585.59C572.699 586.088 574.196 586.515 575.871 586.408C577.154 586.337 578.508 585.732 579.683 585.02C580.788 586.302 585.527 591.82 587.024 592.923C588.699 594.205 596.182 593.778 596.681 598.762Z" fill="#0D2644"/>
<path d="M563.078 514.176C564.611 525.782 570.668 562.378 581.323 580.214C584.743 585.981 572.664 589.185 572.592 589.185C570.953 588.758 568.281 586.159 567.034 585.056C558.375 577.259 540.808 555.187 540.808 537.494C540.808 528.879 540.665 512.396 546.936 508.195C550.785 505.632 562.437 509.584 563.078 514.176Z" fill="#94B0ED"/>
<path d="M491.562 504.03C491.562 504.03 496.765 514.639 521.138 522.115C545.475 529.591 531.578 510.794 531.578 510.794L497.513 498.904L491.562 504.03Z" fill="#ED7D2B"/>
<path d="M512.336 598.904C512.336 598.904 513.655 596.946 514.474 594.062C515.864 589.221 516.363 585.696 519 578.149C521.779 570.21 525.093 560.492 529.227 550.346C530.51 547.213 531.864 544.044 533.289 540.876C535.854 535.251 542.946 535.999 545.476 529.626C545.476 529.626 555.31 507.519 537.244 506.914C519.178 506.308 484.863 566.045 482.868 571.848C480.73 578.149 472.962 604.956 512.336 598.904Z" fill="#AEC3FF"/>
<path d="M577.831 598.762H552.103C552.103 598.762 551.141 594.561 552.816 591.677C554.313 589.15 553.742 587.69 552.638 585.59C553.814 586.088 555.31 586.515 556.985 586.408C558.268 586.337 559.622 585.732 560.798 585.02C561.902 586.302 566.642 591.82 568.138 592.923C569.813 594.205 577.296 593.778 577.831 598.762Z" fill="#163560"/>
<g opacity="0.5">
<path opacity="0.5" d="M519 578.114C521.779 570.175 525.093 560.456 529.227 550.31C528.158 542.62 525.806 535.892 521.886 533.186C521.922 533.186 512.408 562.592 519 578.114Z" fill="#94B0ED"/>
</g>
<path d="M548.041 513.357C549.573 524.963 551.782 562.379 562.437 580.214C565.858 585.981 553.778 589.185 553.707 589.185C552.068 588.758 549.395 586.159 548.148 585.056C539.489 577.259 521.922 555.187 521.922 537.494C521.922 528.879 532.042 513.072 538.349 508.872C542.197 506.308 547.435 508.765 548.041 513.357Z" fill="#AEC3FF"/>
<path d="M603.701 477.366L577.367 474.589C576.583 474.518 575.871 474.945 575.586 475.657L566.178 500.399C565.751 501.467 566.535 502.642 567.711 502.713L593.83 503.781C594.543 503.817 595.184 503.389 595.469 502.749L605.09 479.751C605.518 478.647 604.841 477.472 603.701 477.366Z" fill="#DB6B3A"/>
<path d="M605.981 477.615L579.648 474.838C578.864 474.767 578.151 475.194 577.866 475.906L568.459 500.648C568.032 501.716 568.816 502.891 569.991 502.962L596.111 504.03C596.823 504.066 597.465 503.638 597.75 502.998L607.371 480C607.834 478.896 607.121 477.722 605.981 477.615Z" fill="#F78248"/>
<path d="M591.407 489.149C591.728 488.259 591.264 487.547 590.373 487.547C589.483 487.547 588.521 488.259 588.2 489.149C587.879 490.039 588.342 490.751 589.233 490.751C590.124 490.751 591.086 490.039 591.407 489.149Z" fill="#EBF3FA"/>
<path d="M605.197 479.929C605.34 479.502 605.126 479.146 604.698 479.146C604.271 479.146 603.772 479.502 603.629 479.929C603.487 480.356 603.7 480.712 604.128 480.712C604.556 480.712 605.055 480.356 605.197 479.929Z" fill="#EBF3FA"/>
<path d="M495.268 489.683C495.268 489.683 531.757 503.104 537.244 502.82C540.772 502.642 570.241 492.282 570.241 492.282L572.877 497.266C572.877 497.266 544.193 515.671 536.318 515.6C520.746 515.422 494.484 505.881 491.527 503.994C488.605 502.143 486.645 491.57 495.268 489.683Z" fill="#FFB27D"/>
<path d="M570.241 492.318C570.241 492.318 572.877 488.259 575.514 488.117C578.151 487.974 582.712 489.897 584.244 490.217C585.777 490.538 590.231 491.962 588.912 494.098C587.594 496.234 581.501 496.732 578.864 496.234C576.227 495.771 572.878 497.302 572.878 497.302L570.241 492.318Z" fill="#FFB27D"/>
<path d="M574.802 488.259C574.802 488.259 579.006 486.337 580.182 485.981C581.394 485.625 581.144 485.981 580.788 487.12C580.432 488.259 578.258 489.327 578.258 489.683C578.258 490.039 574.802 488.259 574.802 488.259Z" fill="#FFB27D"/>
<path d="M603.273 490.146C603.273 490.146 601.598 484.664 599.781 486.372C597.856 488.152 599.032 489.968 599.282 492.246C599.745 496.625 600.6 496.447 601.17 496.234C601.74 496.02 603.914 492.353 603.273 490.146Z" fill="#FFB27D"/>
<path d="M603.379 491C603.379 491 604.235 495.664 599.781 498.12L601.099 494.916L603.379 491Z" fill="#FFB27D"/>
<path d="M527.089 473.699C527.089 473.699 525.521 473.094 521.102 473.45C521.102 473.45 521.352 475.158 524.594 475.336C526.447 475.408 527.089 473.699 527.089 473.699Z" fill="white"/>
<path d="M514.082 496.305C514.082 496.305 510.804 506.629 499.615 508.978C499.615 508.978 481.121 503.282 490.315 490.68C490.315 490.68 499.401 483.916 514.082 496.305Z" fill="#F99746"/>
<path d="M603.38 491.641C603.38 491.641 604.163 489.078 604.199 488.615C604.235 488.152 604.199 487.939 603.807 488.259C603.415 488.58 602.809 489.398 602.988 490.182C603.166 490.965 603.38 491.641 603.38 491.641Z" fill="#FFB27D"/>
<path d="M362.926 259.992C362.178 260.846 362.071 261.808 362.463 262.804C363.14 264.691 365.385 266.792 368.022 268.892C368.342 269.177 368.663 269.39 368.913 269.64C368.984 269.711 369.055 269.746 369.126 269.818C369.162 269.853 369.233 269.924 369.269 269.96C371.692 272.203 370.801 272.737 375.184 277.294C380.173 282.491 383.629 282.598 384.591 282.1C385.411 281.708 383.736 278.931 381.883 275.834C381.776 275.692 381.705 275.549 381.598 275.371C381.349 274.944 381.099 274.552 380.85 274.125C378.676 270.387 379.211 268.643 379.745 263.089C380.173 258.568 386.765 237.92 386.765 237.92L377.179 236.282C377.179 236.282 374.293 252.73 371.122 255.257C369.411 256.61 367.523 256.61 365.884 257.642C365.777 257.714 365.67 257.785 365.527 257.856C364.637 258.532 363.674 259.138 362.926 259.992Z" fill="#FFC49C"/>
<path d="M362.926 259.992C362.178 260.846 362.071 261.808 362.463 262.804C363.282 264.691 365.492 266.792 368.022 268.856C368.342 269.141 368.627 269.39 368.913 269.604C368.984 269.675 369.055 269.711 369.126 269.782C369.162 269.818 369.233 269.889 369.269 269.924C371.692 272.167 370.801 272.701 375.184 277.258C380.173 282.456 383.629 282.562 384.591 282.064C385.411 281.672 383.736 278.896 381.883 275.798C380.921 275.442 376.396 273.627 372.975 269.248C369.982 265.403 367.95 260.49 365.919 257.642C365.812 257.714 365.706 257.785 365.563 257.856C364.637 258.532 363.674 259.138 362.926 259.992Z" fill="#233862"/>
<path d="M440.144 254.047C440.749 257.002 444.954 256.503 449.658 255.364C454.361 254.225 453.257 255.578 459.956 254.83C466.655 254.082 468.686 251.59 468.9 250.594C469.078 249.704 465.764 249.383 462.236 248.992C461.773 248.956 461.345 248.885 460.882 248.814C456.891 248.315 453.934 245.716 450.299 243.616C446.843 241.622 441.711 233.399 441.711 233.399L432.518 234.111C432.518 234.111 437.329 241.409 439.217 244.613C440.322 246.5 440.25 248.956 440.108 250.878C440.001 251.946 439.93 252.979 440.144 254.047Z" fill="#FFC49C"/>
<path d="M449.658 255.328C454.361 254.189 453.257 255.542 459.956 254.794C466.655 254.047 468.686 251.555 468.9 250.558C469.078 249.668 465.764 249.348 462.236 248.956L462.201 249.027C462.201 249.027 458.174 251.875 452.615 252.018C448.054 252.124 443.244 250.843 440.108 250.878C440.037 251.911 439.965 252.979 440.179 254.011C440.714 257.002 444.954 256.503 449.658 255.328Z" fill="#233862"/>
<path d="M404.938 195.342L396.35 218.447L385.126 248.6C385.126 248.6 382.097 248.885 379.175 248.066C376.502 247.283 373.402 245.254 373.402 245.254C373.402 245.254 376.502 212.893 382.311 194.31C383.807 189.54 385.482 185.695 387.299 183.523C396.35 172.879 404.938 195.342 404.938 195.342Z" fill="#ED7D2B"/>
<path d="M396.208 158.674C390.863 156.93 376.039 158.995 360.717 161.914C359.327 162.163 357.938 161.558 357.189 160.348L355.051 156.788L320.237 154.082C320.237 154.082 311.258 174.481 315.071 191.462C315.997 195.627 321.093 201.003 328.861 201.501C350.668 202.854 365.385 195.307 388.012 187.332C391.932 185.944 393.749 194.702 397.847 203.281C401.945 211.861 436.331 241.302 436.331 241.302C436.331 241.302 441.605 241.338 443.814 240.554C446.166 239.664 447.021 238.525 447.021 238.525C447.021 238.525 408.893 162.768 396.208 158.674Z" fill="#F99746"/>
<path d="M353.661 55.5056C349.207 53.156 342.401 52.8356 341.297 52.6932C328.112 50.9132 320.166 70.066 319.703 75.8688C318.848 86.5488 313.182 88.1864 305.2 94.8792C289.201 108.3 293.904 123.929 302.635 129.732C307.873 133.22 317.137 129.732 317.137 129.732C317.28 129.838 342.437 115.67 354.802 108.87C373.402 106.236 365.028 61.4508 353.661 55.5056Z" fill="#233862"/>
<path d="M344.432 103.067C344.504 103.103 338.339 105.203 334.206 103.388C330.322 101.679 327.4 95.3064 327.471 95.3064C329.217 95.2352 331.177 93.7044 332.638 83.594L333.386 83.8788L346 88.4C346 88.4 345.074 92.4584 344.504 96.3032C344.005 99.5428 343.755 102.64 344.432 103.067Z" fill="#FFB27D"/>
<path d="M346 88.4C346 88.4 345.359 91.2836 344.682 95.1996C337.448 93.8824 334.42 87.7948 333.386 83.8788L346 88.4Z" fill="#ED975D"/>
<path d="M347.889 92.4228C347.889 92.4228 330.642 90.1088 332.246 79.3932C333.849 68.6776 332.709 61.166 343.791 62.1984C354.873 63.2308 356.405 67.6452 356.726 71.3476C357.082 75.05 352.414 92.7432 347.889 92.4228Z" fill="#FFB27D"/>
<path d="M356.12 65.4736C356.12 65.4736 345.074 74.9788 337.555 75.762C330.037 76.5452 327.186 74.1244 327.186 74.1244C327.186 74.1244 331.605 70.4576 334.277 64.5124C335.061 62.768 336.736 61.5576 338.624 61.4152C344.005 60.9168 354.16 60.7032 356.12 65.4736Z" fill="#233862"/>
<path d="M349.207 64.6192C349.207 64.6192 352.913 68.1792 354.053 70.8492C355.194 73.4124 355.514 79.5 354.624 81.9564C354.624 81.9564 360.396 70.778 357.118 65.3312C353.661 59.5284 349.207 64.6192 349.207 64.6192Z" fill="#233862"/>
<path d="M358.971 128.486C360.289 159.6 358.187 157.891 355.016 159.386C353.911 159.92 351.524 160.668 348.103 160.882C337.377 161.594 318.563 159.814 317.85 157.856C315.391 151.02 317.137 148.884 315.071 138.418C314.857 137.314 314.607 136.104 314.287 134.787C312.576 127.596 310.902 125.139 316.995 113.605C322.518 103.138 328.255 94.63 328.79 94.9504C343.364 103.601 344.539 96.3388 344.539 96.3388C344.539 96.3388 358.223 111.469 358.971 128.486Z" fill="#AEC3FF"/>
<path d="M396.35 218.447L385.126 248.6C385.126 248.6 382.097 248.885 379.175 248.066C376.502 247.283 373.402 245.254 373.402 245.254C373.402 245.254 376.502 212.893 382.311 194.31L396.35 218.447Z" fill="#F99746"/>
<path d="M344.504 96.3032C344.504 96.3032 359.505 98.8308 361.287 105.31C363.033 111.754 373.402 149.703 373.402 149.703C373.402 149.703 365.777 151.056 362.249 147.567C358.721 144.043 349.991 114.886 349.991 114.886L344.504 96.3032Z" fill="#AEC3FF"/>
<path d="M348.067 160.882C337.342 161.594 318.527 159.814 317.814 157.856C315.356 151.02 317.102 148.884 315.035 138.418L320.202 123.893C320.202 123.893 319.347 140.091 324.122 144.328C328.896 148.6 343.684 152.551 346 156.111C347.141 157.784 347.853 159.493 348.067 160.882Z" fill="#94B0ED"/>
<path d="M335.809 154.082C335.809 154.082 346.357 151.732 348.067 152.658C349.777 153.584 353.946 157.001 354.445 158.176C354.98 159.351 350.668 157.286 349.243 156.894C348.316 156.645 345.929 157.464 344.753 157.891C339.764 159.564 336.7 158.71 336.7 158.71L335.809 154.082Z" fill="#FFB27D"/>
<path d="M328.754 94.9148C328.754 94.9148 314.572 95.8048 309.654 102.64C302.741 112.288 289.023 153.334 296.898 158.781C305.735 164.94 337.163 160.383 337.163 160.383C337.163 160.383 338.197 155.506 336.771 153.121C335.346 150.736 311.685 146.926 310.581 145.858C309.476 144.79 324.228 124.605 324.228 121.33C324.193 118.09 328.754 94.9148 328.754 94.9148Z" fill="#AEC3FF"/>
<path d="M348.602 155.613C348.602 155.613 350.811 158.461 351.523 158.817C352.236 159.173 352.735 159.066 352.735 159.066L351.238 156.396L348.602 155.613Z" fill="#FFB27D"/>
<path d="M348.067 152.658L354.517 155.791C354.517 155.791 354.232 156.254 353.448 156.218C352.664 156.182 350.668 155.435 350.668 155.435L348.067 152.658Z" fill="#FFB27D"/>
<path d="M351.523 163.16H402.443L417.766 125.104H366.917L351.523 163.16Z" fill="#2B478B"/>
<path d="M403.049 161.665H335.809V163.16H402.443L403.049 161.665Z" fill="#2B478B"/>
<path d="M389.58 144.15C389.972 142.797 389.188 141.729 387.834 141.729C386.48 141.729 385.09 142.797 384.698 144.15C384.306 145.502 385.09 146.57 386.444 146.57C387.798 146.57 389.223 145.467 389.58 144.15Z" fill="#EBF3FA"/>
<path d="M769.823 600.577H1.28328C0.784414 600.577 0.356812 600.15 0.356812 599.652V599.225C0.356812 598.726 0.784414 598.299 1.28328 598.299H769.823C770.322 598.299 770.75 598.726 770.75 599.225V599.652C770.75 600.15 770.322 600.577 769.823 600.577Z" fill="#2E3552"/>
</svg>
