<svg width="215" height="100" viewBox="0 0 215 100" fill="none" xmlns="http://www.w3.org/2000/svg">
<path d="M0 94.8991V24.5437H9.56675V94.8991H0ZM16.6552 59.6209C16.6552 54.4613 17.3938 49.6706 18.8707 45.2483C20.4148 40.826 22.5967 37.0067 25.4164 33.7904C28.3032 30.5072 31.7942 27.961 35.8894 26.1519C39.9847 24.2757 44.6506 23.3376 49.8871 23.3376C55.0566 23.3376 59.6889 24.3092 63.784 26.2524C67.9466 28.1285 71.4374 30.7082 74.2571 33.9915C77.1437 37.2747 79.3592 41.1275 80.9034 45.5498C82.4477 49.9052 83.2196 54.5955 83.2196 59.6209C83.2196 64.6463 82.4477 69.3701 80.9034 73.7925C79.4266 78.2148 77.2444 82.1009 74.3578 85.4514C71.4711 88.7344 67.9798 91.3477 63.8847 93.291C59.7896 95.1669 55.1236 96.1052 49.8871 96.1052C44.6506 96.1052 39.9847 95.1669 35.8894 93.291C31.7942 91.3477 28.3032 88.7344 25.4164 85.4514C22.5967 82.1009 20.4148 78.2148 18.8707 73.7925C17.3938 69.3701 16.6552 64.6463 16.6552 59.6209ZM26.4234 59.6209C26.4234 63.2392 26.9269 66.7569 27.9339 70.1742C29.0081 73.5915 30.5522 76.6067 32.5663 79.2199C34.5803 81.8331 37.0308 83.9438 39.9175 85.5519C42.8715 87.0932 46.1947 87.8635 49.8871 87.8635C53.7807 87.8635 57.1714 87.16 60.058 85.7529C63.0121 84.2789 65.4622 82.302 67.4093 79.8229C69.4234 77.2766 70.9339 74.295 71.9409 70.8778C72.9479 67.3937 73.4515 63.6412 73.4515 59.6209C73.4515 56.0026 72.9142 52.5185 71.8402 49.1681C70.7662 45.8178 69.2219 42.8361 67.2079 40.2229C65.1938 37.6097 62.71 35.5326 59.7559 33.9915C56.8693 32.3833 53.5793 31.5793 49.8871 31.5793C46.1947 31.5793 42.8715 32.3163 39.9175 33.7904C37.0308 35.1975 34.5803 37.1742 32.5663 39.7204C30.5522 42.1996 29.0081 45.1478 27.9339 48.5651C26.9269 51.9823 26.4234 55.6674 26.4234 59.6209Z" fill="black"/>
<path d="M94.1821 66.757V50.927H96.3346V66.757H94.1821ZM102.461 53.6859V66.757H100.422V50.927H103.277L110.278 64.0885V50.927H112.318V66.757H109.508L102.461 53.6859ZM114.585 51.4924L116.692 50.6783L121.677 64.4051L126.684 50.7461L128.633 51.4924L122.833 66.757H120.408L114.585 51.4924ZM130.891 50.927H140.407V52.7814H133.043V57.5982H139.387V59.4073H133.043V64.9026H140.407V66.757H130.891V50.927ZM145.498 53.6859V66.757H143.459V50.927H146.314L153.315 64.0885V50.927H155.354V66.757H152.545L145.498 53.6859ZM157.622 50.927H169.518V52.8266H164.646V66.757H162.494V52.8266H157.622V50.927ZM170.189 58.8194C170.189 57.6585 170.356 56.5806 170.688 55.5855C171.035 54.5905 171.526 53.7312 172.161 53.0075C172.81 52.2688 173.596 51.6959 174.517 51.2888C175.439 50.8667 176.488 50.6556 177.667 50.6556C178.83 50.6556 179.872 50.8742 180.793 51.3115C181.73 51.7336 182.515 52.314 183.15 53.0527C183.799 53.7915 184.298 54.6584 184.645 55.6534C184.993 56.6333 185.166 57.6887 185.166 58.8194C185.166 59.9501 184.993 61.0129 184.645 62.008C184.313 63.003 183.822 63.8774 183.172 64.6312C182.523 65.3699 181.737 65.9579 180.816 66.3951C179.895 66.8173 178.845 67.0283 177.667 67.0283C176.488 67.0283 175.439 66.8173 174.517 66.3951C173.596 65.9579 172.81 65.3699 172.161 64.6312C171.526 63.8774 171.035 63.003 170.688 62.008C170.356 61.0129 170.189 59.9501 170.189 58.8194ZM172.387 58.8194C172.387 59.6335 172.501 60.425 172.727 61.1939C172.969 61.9627 173.316 62.6412 173.769 63.2291C174.223 63.8171 174.774 64.292 175.423 64.6538C176.088 65.0006 176.836 65.174 177.667 65.174C178.543 65.174 179.305 65.0157 179.955 64.6991C180.62 64.3674 181.171 63.9226 181.609 63.3648C182.062 62.7919 182.402 62.121 182.629 61.3522C182.855 60.5682 182.969 59.7239 182.969 58.8194C182.969 58.0053 182.848 57.2213 182.606 56.4675C182.364 55.7137 182.017 55.0428 181.564 54.4548C181.111 53.8669 180.552 53.3995 179.887 53.0527C179.238 52.6909 178.497 52.51 177.667 52.51C176.836 52.51 176.088 52.6758 175.423 53.0075C174.774 53.3241 174.223 53.7689 173.769 54.3418C173.316 54.8996 172.969 55.5629 172.727 56.3318C172.501 57.1007 172.387 57.9299 172.387 58.8194ZM197.577 67.0283L195.606 62.7316C195.107 61.6612 194.48 60.8999 193.725 60.4476C192.97 59.9953 192.003 59.7692 190.825 59.7692H190.485V66.757H188.332V50.9722C189.148 50.8969 189.911 50.8441 190.621 50.8139C191.346 50.7687 192.131 50.7461 192.977 50.7461C193.944 50.7461 194.79 50.8516 195.515 51.0627C196.24 51.2587 196.844 51.5451 197.328 51.922C197.811 52.2989 198.174 52.7437 198.415 53.2563C198.672 53.7689 198.8 54.3342 198.8 54.9523C198.8 56.0529 198.468 56.9424 197.804 57.6208C197.154 58.2842 196.21 58.7817 194.971 59.1134C195.273 59.249 195.553 59.4073 195.81 59.5883C196.066 59.7541 196.308 59.9652 196.535 60.2214C196.761 60.4627 196.98 60.7567 197.192 61.1034C197.418 61.4502 197.645 61.8723 197.872 62.3698L199.594 66.0785L197.577 67.0283ZM192.977 52.5552C192.464 52.5552 192.003 52.5628 191.595 52.5778C191.187 52.5929 190.817 52.6155 190.485 52.6457V57.96H192.977C194.065 57.96 194.949 57.7188 195.628 57.2364C196.308 56.7539 196.648 56.0604 196.648 55.1559C196.648 54.4021 196.331 53.7839 195.696 53.3015C195.062 52.804 194.156 52.5552 192.977 52.5552ZM206.369 58.7515L211.127 50.8139L212.827 51.809L207.366 60.7416V66.757H205.214V60.7416L199.708 51.809L201.52 50.7235L206.369 58.7515Z" fill="black"/>
<path d="M93.2758 82.9412C93.2758 81.7803 93.4419 80.7024 93.7742 79.7074C94.1217 78.7123 94.6126 77.853 95.247 77.1293C95.8965 76.3906 96.682 75.8177 97.6034 75.4107C98.5249 74.9885 99.5747 74.7775 100.753 74.7775C101.916 74.7775 102.958 74.9961 103.88 75.4333C104.816 75.8554 105.602 76.4358 106.236 77.1746C106.886 77.9133 107.384 78.7802 107.732 79.7752C108.079 80.7552 108.253 81.8105 108.253 82.9412C108.253 84.0719 108.079 85.1348 107.732 86.1298C107.399 87.1248 106.908 87.9992 106.259 88.753C105.609 89.4918 104.824 90.0797 103.902 90.517C102.981 90.9391 101.931 91.1501 100.753 91.1501C99.5747 91.1501 98.5249 90.9391 97.6034 90.517C96.682 90.0797 95.8965 89.4918 95.247 88.753C94.6126 87.9992 94.1217 87.1248 93.7742 86.1298C93.4419 85.1348 93.2758 84.0719 93.2758 82.9412ZM95.4736 82.9412C95.4736 83.7553 95.5869 84.5468 95.8135 85.3157C96.0551 86.0846 96.4026 86.763 96.8557 87.351C97.3089 87.9389 97.8602 88.4138 98.5098 88.7757C99.1744 89.1224 99.9221 89.2958 100.753 89.2958C101.629 89.2958 102.392 89.1375 103.041 88.8209C103.706 88.4892 104.257 88.0445 104.695 87.4866C105.149 86.9138 105.488 86.2429 105.715 85.474C105.942 84.69 106.055 83.8458 106.055 82.9412C106.055 82.1271 105.934 81.3431 105.692 80.5893C105.451 79.8355 105.103 79.1646 104.65 78.5767C104.197 77.9887 103.638 77.5213 102.973 77.1746C102.324 76.8127 101.584 76.6318 100.753 76.6318C99.9221 76.6318 99.1744 76.7977 98.5098 77.1293C97.8602 77.4459 97.3089 77.8907 96.8557 78.4636C96.4026 79.0214 96.0551 79.6847 95.8135 80.4536C95.5869 81.2225 95.4736 82.0517 95.4736 82.9412ZM120.663 91.1501L118.692 86.8535C118.194 85.783 117.567 85.0217 116.811 84.5694C116.056 84.1171 115.089 83.891 113.911 83.891H113.571V90.8788H111.419V75.0941C112.235 75.0187 112.997 74.9659 113.707 74.9358C114.432 74.8905 115.218 74.8679 116.064 74.8679C117.03 74.8679 117.876 74.9735 118.601 75.1845C119.327 75.3805 119.931 75.667 120.414 76.0439C120.897 76.4208 121.26 76.8655 121.502 77.3781C121.758 77.8907 121.887 78.456 121.887 79.0742C121.887 80.1747 121.555 81.0642 120.89 81.7426C120.24 82.406 119.296 82.9035 118.058 83.2352C118.36 83.3709 118.639 83.5292 118.896 83.7101C119.153 83.8759 119.394 84.087 119.621 84.3433C119.848 84.5845 120.067 84.8785 120.278 85.2252C120.505 85.572 120.731 85.9941 120.958 86.4916L122.68 90.2003L120.663 91.1501ZM116.064 76.6771C115.55 76.6771 115.089 76.6846 114.682 76.6997C114.274 76.7147 113.904 76.7374 113.571 76.7675V82.0818H116.064C117.151 82.0818 118.035 81.8406 118.715 81.3582C119.394 80.8758 119.734 80.1823 119.734 79.2777C119.734 78.5239 119.417 77.9058 118.783 77.4233C118.148 76.9258 117.242 76.6771 116.064 76.6771ZM131.838 82.4889H137.163V90.8788H135.26V89.2958C134.731 89.7631 134.089 90.1928 133.334 90.5848C132.578 90.9617 131.74 91.1501 130.819 91.1501C129.897 91.1501 129.051 90.9692 128.281 90.6074C127.511 90.2456 126.846 89.7255 126.287 89.047C125.728 88.3686 125.29 87.5545 124.973 86.6047C124.656 85.6398 124.497 84.5619 124.497 83.3709C124.497 82.1045 124.656 80.9511 124.973 79.9109C125.305 78.8556 125.781 77.951 126.4 77.1972C127.02 76.4283 127.775 75.8328 128.666 75.4107C129.572 74.9885 130.6 74.7775 131.748 74.7775C132.745 74.7775 133.621 74.8981 134.376 75.1393C135.146 75.3805 135.871 75.6896 136.551 76.0665L135.758 77.853C135.124 77.5062 134.482 77.2198 133.832 76.9937C133.183 76.7675 132.45 76.6544 131.634 76.6544C130.924 76.6544 130.267 76.7977 129.663 77.0841C129.059 77.3706 128.538 77.7927 128.1 78.3505C127.662 78.9083 127.314 79.6018 127.057 80.431C126.816 81.2451 126.695 82.1798 126.695 83.2352C126.695 84.185 126.808 85.0368 127.035 85.7906C127.261 86.5293 127.579 87.1625 127.986 87.6902C128.394 88.2028 128.878 88.5947 129.437 88.8661C130.011 89.1375 130.637 89.2732 131.317 89.2732C131.74 89.2732 132.14 89.2279 132.518 89.1375C132.896 89.032 133.243 88.9038 133.56 88.753C133.878 88.5872 134.165 88.4138 134.421 88.2329C134.693 88.0369 134.927 87.8409 135.124 87.6449V84.185H131.838V82.4889ZM138.858 90.3134L145.067 75.0488H147.423L153.541 90.3134L151.569 91.1049L149.802 86.5821H142.461L140.694 91.0597L138.858 90.3134ZM143.141 84.7729H149.1L146.132 77.1746L143.141 84.7729ZM157.845 77.8078V90.8788H155.806V75.0488H158.661L165.662 88.2103V75.0488H167.701V90.8788H164.892L157.845 77.8078ZM171.781 90.8788V75.0488H173.934V90.8788H171.781ZM176.889 89.2053L185.317 76.9032H177.274V75.0488H187.787V76.6771L179.358 88.9792H188.104V90.8788H176.889V89.2053ZM191.054 75.0488H200.571V76.9032H193.207V81.72H199.551V83.5292H193.207V89.0244H200.571V90.8788H191.054V75.0488ZM212.867 91.1501L210.896 86.8535C210.397 85.783 209.771 85.0217 209.015 84.5694C208.26 84.1171 207.293 83.891 206.115 83.891H205.775V90.8788H203.623V75.0941C204.438 75.0187 205.201 74.9659 205.911 74.9358C206.636 74.8905 207.422 74.8679 208.268 74.8679C209.234 74.8679 210.08 74.9735 210.805 75.1845C211.53 75.3805 212.134 75.667 212.618 76.0439C213.101 76.4208 213.464 76.8655 213.705 77.3781C213.962 77.8907 214.091 78.456 214.091 79.0742C214.091 80.1747 213.758 81.0642 213.094 81.7426C212.444 82.406 211.5 82.9035 210.261 83.2352C210.564 83.3709 210.843 83.5292 211.1 83.7101C211.357 83.8759 211.598 84.087 211.825 84.3433C212.051 84.5845 212.27 84.8785 212.482 85.2252C212.708 85.572 212.935 85.9941 213.162 86.4916L214.884 90.2003L212.867 91.1501ZM208.268 76.6771C207.754 76.6771 207.293 76.6846 206.885 76.6997C206.478 76.7147 206.107 76.7374 205.775 76.7675V82.0818H208.268C209.355 82.0818 210.239 81.8406 210.919 81.3582C211.598 80.8758 211.938 80.1823 211.938 79.2777C211.938 78.5239 211.621 77.9058 210.986 77.4233C210.352 76.9258 209.446 76.6771 208.268 76.6771Z" fill="black"/>
</svg>
