<svg width="182" height="62" viewBox="0 0 182 62" fill="none" xmlns="http://www.w3.org/2000/svg">
<path d="M0 60.7188V1.02335H8.09836V60.7188H0ZM14.0989 30.7858C14.0989 26.408 14.724 22.3432 15.9743 18.5909C17.2814 14.8386 19.1284 11.598 21.5153 8.86904C23.959 6.08327 26.9142 3.92284 30.3808 2.38782C33.8475 0.795954 37.7972 0 42.23 0C46.6061 0 50.5274 0.824353 53.9939 2.4731C57.5175 4.06496 60.4726 6.25383 62.8595 9.0396C65.303 11.8254 67.1785 15.0944 68.4857 18.8467C69.7929 22.5422 70.4464 26.5218 70.4464 30.7858C70.4464 35.0498 69.7929 39.0579 68.4857 42.8102C67.2356 46.5624 65.3883 49.8598 62.9447 52.7025C60.5011 55.4882 57.5457 57.7055 54.0791 59.3543C50.6126 60.9461 46.6628 61.7421 42.23 61.7421C37.7972 61.7421 33.8475 60.9461 30.3808 59.3543C26.9142 57.7055 23.959 55.4882 21.5153 52.7025C19.1284 49.8598 17.2814 46.5624 15.9743 42.8102C14.724 39.0579 14.0989 35.0498 14.0989 30.7858ZM22.3677 30.7858C22.3677 33.8559 22.7939 36.8406 23.6464 39.7401C24.5557 42.6396 25.8628 45.198 27.5677 47.4152C29.2726 49.6325 31.347 51.4234 33.7907 52.7878C36.2912 54.0956 39.1043 54.7492 42.23 54.7492C45.526 54.7492 48.3962 54.1523 50.8398 52.9584C53.3405 51.7078 55.4145 50.0303 57.0628 47.9269C58.7677 45.7664 60.0464 43.2366 60.8988 40.3371C61.7513 37.3809 62.1775 34.197 62.1775 30.7858C62.1775 27.7157 61.7227 24.7595 60.8136 21.9168C59.9044 19.0741 58.5972 16.5442 56.8923 14.3269C55.1873 12.1096 53.0847 10.3472 50.5841 9.0396C48.1405 7.67513 45.3555 6.9929 42.23 6.9929C39.1043 6.9929 36.2912 7.61829 33.7907 8.86904C31.347 10.0629 29.2726 11.7401 27.5677 13.9005C25.8628 16.0041 24.5557 18.5056 23.6464 21.4051C22.7939 24.3046 22.3677 27.4313 22.3677 30.7858Z" fill="black"/>
<path d="M79.7262 36.8407V23.4092H81.5483V36.8407H79.7262ZM86.7347 25.7501V36.8407H85.0085V23.4092H87.4252L93.3519 34.5765V23.4092H95.0781V36.8407H92.6998L86.7347 25.7501ZM96.9974 23.8889L98.7812 23.1981L103.001 34.8451L107.24 23.2557L108.889 23.8889L103.979 36.8407H101.927L96.9974 23.8889ZM110.8 23.4092H118.856V24.9826H112.623V29.0696H117.993V30.6046H112.623V35.2673H118.856V36.8407H110.8V23.4092ZM123.166 25.7501V36.8407H121.44V23.4092H123.856L129.783 34.5765V23.4092H131.509V36.8407H129.131L123.166 25.7501ZM133.429 23.4092H143.499V25.021H139.375V36.8407H137.553V25.021H133.429V23.4092ZM144.067 30.1058C144.067 29.1208 144.208 28.2062 144.489 27.3619C144.783 26.5176 145.199 25.7885 145.736 25.1745C146.286 24.5477 146.951 24.0616 147.731 23.7162C148.511 23.358 149.399 23.179 150.397 23.179C151.381 23.179 152.264 23.3644 153.044 23.7354C153.836 24.0936 154.501 24.5861 155.038 25.2129C155.588 25.8397 156.01 26.5752 156.304 27.4195C156.598 28.2509 156.745 29.1464 156.745 30.1058C156.745 31.0651 156.598 31.967 156.304 32.8112C156.023 33.6555 155.607 34.3974 155.058 35.037C154.508 35.6638 153.843 36.1627 153.063 36.5337C152.283 36.8918 151.394 37.0709 150.397 37.0709C149.399 37.0709 148.511 36.8918 147.731 36.5337C146.951 36.1627 146.286 35.6638 145.736 35.037C145.199 34.3974 144.783 33.6555 144.489 32.8112C144.208 31.967 144.067 31.0651 144.067 30.1058ZM145.928 30.1058C145.928 30.7965 146.024 31.4681 146.215 32.1205C146.42 32.7729 146.714 33.3485 147.098 33.8474C147.481 34.3463 147.948 34.7492 148.498 35.0562C149.061 35.3504 149.693 35.4975 150.397 35.4975C151.138 35.4975 151.784 35.3632 152.334 35.0946C152.897 34.8132 153.363 34.4358 153.734 33.9625C154.118 33.4764 154.405 32.9072 154.597 32.2548C154.789 31.5896 154.885 30.8733 154.885 30.1058C154.885 29.415 154.783 28.7498 154.578 28.1102C154.373 27.4706 154.079 26.9014 153.696 26.4025C153.312 25.9036 152.839 25.5071 152.276 25.2129C151.727 24.9059 151.1 24.7524 150.397 24.7524C149.693 24.7524 149.061 24.8931 148.498 25.1745C147.948 25.4431 147.481 25.8205 147.098 26.3066C146.714 26.7799 146.42 27.3427 146.215 27.9951C146.024 28.6475 145.928 29.351 145.928 30.1058ZM167.251 37.0709L165.582 33.4252C165.16 32.517 164.63 31.871 163.99 31.4873C163.351 31.1035 162.533 30.9116 161.535 30.9116H161.248V36.8407H159.426V23.4476C160.116 23.3836 160.762 23.3389 161.363 23.3133C161.977 23.2749 162.641 23.2557 163.358 23.2557C164.176 23.2557 164.892 23.3452 165.506 23.5243C166.119 23.6906 166.631 23.9337 167.04 24.2535C167.449 24.5733 167.756 24.9506 167.961 25.3856C168.178 25.8205 168.287 26.3002 168.287 26.8246C168.287 27.7584 168.006 28.5132 167.443 29.0888C166.893 29.6516 166.094 30.0738 165.045 30.3552C165.301 30.4703 165.538 30.6046 165.755 30.7581C165.972 30.8989 166.177 31.0779 166.369 31.2954C166.561 31.5001 166.746 31.7495 166.925 32.0437C167.117 32.3379 167.309 32.6961 167.5 33.1182L168.958 36.265L167.251 37.0709ZM163.358 24.7907C162.923 24.7907 162.533 24.7971 162.188 24.8099C161.842 24.8227 161.529 24.8419 161.248 24.8675V29.3766H163.358C164.278 29.3766 165.026 29.1719 165.602 28.7626C166.177 28.3533 166.465 27.7648 166.465 26.9973C166.465 26.3577 166.196 25.8333 165.659 25.4239C165.122 25.0018 164.355 24.7907 163.358 24.7907ZM174.694 30.0482L178.722 23.3133L180.16 24.1575L175.538 31.7367V36.8407H173.716V31.7367L169.055 24.1575L170.589 23.2365L174.694 30.0482Z" fill="black"/>
<path d="M78.959 50.5728C78.959 49.5878 79.0996 48.6732 79.381 47.8289C79.6751 46.9847 80.0906 46.2555 80.6277 45.6415C81.1775 45.0147 81.8424 44.5286 82.6224 44.1833C83.4024 43.8251 84.2911 43.646 85.2885 43.646C86.2731 43.646 87.1554 43.8315 87.9354 44.2024C88.7282 44.5606 89.3931 45.0531 89.9301 45.6799C90.48 46.3067 90.9019 47.0422 91.196 47.8865C91.4901 48.718 91.6372 49.6134 91.6372 50.5728C91.6372 51.5322 91.4901 52.434 91.196 53.2783C90.9147 54.1225 90.4991 54.8645 89.9493 55.5041C89.3995 56.1309 88.7346 56.6297 87.9546 57.0007C87.1746 57.3589 86.2859 57.538 85.2885 57.538C84.2911 57.538 83.4024 57.3589 82.6224 57.0007C81.8424 56.6297 81.1775 56.1309 80.6277 55.5041C80.0906 54.8645 79.6751 54.1225 79.381 53.2783C79.0996 52.434 78.959 51.5322 78.959 50.5728ZM80.8195 50.5728C80.8195 51.2636 80.9154 51.9351 81.1072 52.5875C81.3118 53.2399 81.6059 53.8155 81.9895 54.3144C82.3731 54.8133 82.8398 55.2162 83.3896 55.5232C83.9523 55.8175 84.5852 55.9646 85.2885 55.9646C86.0301 55.9646 86.6759 55.8303 87.2257 55.5616C87.7883 55.2802 88.255 54.9028 88.6259 54.4295C89.0095 53.9435 89.2972 53.3742 89.489 52.7218C89.6808 52.0566 89.7767 51.3403 89.7767 50.5728C89.7767 49.882 89.6744 49.2169 89.4698 48.5773C89.2652 47.9377 88.9711 47.3684 88.5875 46.8695C88.2039 46.3707 87.7308 45.9741 87.1682 45.6799C86.6183 45.3729 85.9918 45.2194 85.2885 45.2194C84.5852 45.2194 83.9523 45.3601 83.3896 45.6415C82.8398 45.9102 82.3731 46.2875 81.9895 46.7736C81.6059 47.2469 81.3118 47.8097 81.1072 48.4621C80.9154 49.1145 80.8195 49.8181 80.8195 50.5728ZM102.143 57.538L100.474 53.8923C100.052 52.9841 99.5216 52.3381 98.8822 51.9543C98.2429 51.5706 97.4245 51.3787 96.4271 51.3787H96.1394V57.3077H94.3173V43.9146C95.0078 43.8507 95.6535 43.8059 96.2545 43.7803C96.8683 43.7419 97.5332 43.7227 98.2493 43.7227C99.0676 43.7227 99.7837 43.8123 100.397 43.9914C101.011 44.1577 101.523 44.4007 101.932 44.7205C102.341 45.0403 102.648 45.4177 102.853 45.8526C103.07 46.2875 103.179 46.7672 103.179 47.2917C103.179 48.2255 102.897 48.9802 102.335 49.5558C101.785 50.1187 100.986 50.5408 99.9371 50.8222C100.193 50.9374 100.429 51.0717 100.647 51.2252C100.864 51.3659 101.069 51.545 101.261 51.7624C101.452 51.9671 101.638 52.2165 101.817 52.5108C102.009 52.805 102.2 53.1631 102.392 53.5853L103.85 56.7321L102.143 57.538ZM98.2493 45.2578C97.8145 45.2578 97.4245 45.2642 97.0793 45.277C96.734 45.2898 96.4207 45.3089 96.1394 45.3345V49.8437H98.2493C99.1699 49.8437 99.918 49.639 100.493 49.2296C101.069 48.8203 101.356 48.2319 101.356 47.4644C101.356 46.8248 101.088 46.3003 100.551 45.891C100.014 45.4688 99.2467 45.2578 98.2493 45.2578ZM111.603 50.189H116.11V57.3077H114.499V55.9646C114.051 56.3611 113.508 56.7257 112.869 57.0583C112.229 57.3781 111.52 57.538 110.74 57.538C109.96 57.538 109.243 57.3845 108.591 57.0775C107.939 56.7705 107.377 56.3291 106.903 55.7535C106.43 55.1779 106.06 54.4871 105.791 53.6812C105.522 52.8625 105.388 51.9479 105.388 50.9374C105.388 49.8628 105.522 48.8843 105.791 48.0016C106.072 47.1062 106.475 46.3387 106.999 45.6991C107.524 45.0467 108.163 44.5414 108.917 44.1833C109.685 43.8251 110.554 43.646 111.526 43.646C112.37 43.646 113.111 43.7483 113.751 43.953C114.403 44.1577 115.017 44.4199 115.592 44.7397L114.921 46.2555C114.384 45.9613 113.84 45.7183 113.29 45.5264C112.741 45.3345 112.12 45.2386 111.43 45.2386C110.829 45.2386 110.273 45.3601 109.761 45.6032C109.25 45.8462 108.809 46.2044 108.438 46.6777C108.067 47.151 107.773 47.7394 107.556 48.4429C107.351 49.1337 107.249 49.9268 107.249 50.8222C107.249 51.6281 107.345 52.3509 107.536 52.9905C107.728 53.6173 107.997 54.1545 108.342 54.6022C108.687 55.0372 109.096 55.3697 109.569 55.6C110.055 55.8302 110.586 55.9454 111.161 55.9454C111.52 55.9454 111.858 55.907 112.178 55.8303C112.498 55.7407 112.792 55.632 113.06 55.5041C113.329 55.3633 113.572 55.2162 113.789 55.0627C114.019 54.8964 114.218 54.7302 114.384 54.5639V51.6281H111.603V50.189ZM117.545 56.828L122.801 43.8762H124.795L129.974 56.828L128.305 57.4996L126.809 53.662H120.595L119.099 57.4612L117.545 56.828ZM121.17 52.127H126.215L123.702 45.6799L121.17 52.127ZM133.618 46.2172V57.3077H131.892V43.8762H134.308L140.235 55.0436V43.8762H141.961V57.3077H139.583L133.618 46.2172ZM145.415 57.3077V43.8762H147.237V57.3077H145.415ZM149.738 55.8878L156.873 45.4496H150.064V43.8762H158.964V45.2578L151.829 55.6959H159.232V57.3077H149.738V55.8878ZM161.73 43.8762H169.785V45.4496H163.552V49.5366H168.922V51.0717H163.552V55.7343H169.785V57.3077H161.73V43.8762ZM180.194 57.538L178.526 53.8923C178.104 52.9841 177.573 52.3381 176.934 51.9543C176.294 51.5706 175.476 51.3787 174.479 51.3787H174.191V57.3077H172.369V43.9146C173.059 43.8507 173.705 43.8059 174.306 43.7803C174.92 43.7419 175.585 43.7227 176.301 43.7227C177.119 43.7227 177.835 43.8123 178.449 43.9914C179.063 44.1577 179.574 44.4007 179.983 44.7205C180.393 45.0403 180.7 45.4177 180.904 45.8526C181.121 46.2875 181.23 46.7672 181.23 47.2917C181.23 48.2255 180.949 48.9802 180.386 49.5558C179.836 50.1187 179.037 50.5408 177.989 50.8222C178.244 50.9374 178.481 51.0717 178.698 51.2252C178.916 51.3659 179.12 51.545 179.312 51.7624C179.504 51.9671 179.689 52.2165 179.868 52.5108C180.06 52.805 180.252 53.1631 180.444 53.5853L181.901 56.7321L180.194 57.538ZM176.301 45.2578C175.866 45.2578 175.476 45.2642 175.131 45.277C174.786 45.2898 174.472 45.3089 174.191 45.3345V49.8437H176.301C177.221 49.8437 177.97 49.639 178.545 49.2296C179.12 48.8203 179.408 48.2319 179.408 47.4644C179.408 46.8248 179.14 46.3003 178.602 45.891C178.065 45.4688 177.298 45.2578 176.301 45.2578Z" fill="black"/>
</svg>
